<?xml version="1.0" encoding="utf-8"?>
<!-- Generator: Adobe Illustrator 15.0.0, SVG Export Plug-In . SVG Version: 6.00 Build 0)  -->
<!DOCTYPE svg PUBLIC "-//W3C//DTD SVG 1.1//EN" "http://www.w3.org/Graphics/SVG/1.1/DTD/svg11.dtd">
<svg version="1.1" xmlns="http://www.w3.org/2000/svg" xmlns:xlink="http://www.w3.org/1999/xlink" x="0px" y="0px"
	 width="1118.841px" height="841.89px" viewBox="0 0 1118.841 841.89" enable-background="new 0 0 1118.841 841.89"
	 xml:space="preserve">
<g id="bg">
</g>
<g id="heart" display="none">
	<g display="inline">
		<radialGradient id="SVGID_1_" cx="537.4004" cy="137.2617" r="69.7948" gradientUnits="userSpaceOnUse">
			<stop  offset="0" style="stop-color:#BCBEC0"/>
			<stop  offset="0.3109" style="stop-color:#C9CBCD"/>
			<stop  offset="0.9158" style="stop-color:#ECECED"/>
			<stop  offset="1" style="stop-color:#F1F2F2"/>
		</radialGradient>
		<path fill="url(#SVGID_1_)" d="M470.689,136.113c-1.859,18.518-3.623,42.404-3.613,66.349c2.605,1.275,5.191,2.612,7.761,4.061
			c0.654-0.216,1.293-0.422,1.859-0.603c15.392-39.856,50.688-84.502,131.029-94.522c-18.304-17.282-34.156-16.958-35.108-16.923
			c-2.513,0.155-9.06-0.814-10.875-2.56c-1.812-1.742-6.935-4.148-6.935-6.662V68.001l-45.522,2.216l-3.503,31.585
			c-0.474,2.688-1.097,5.029-3.446,6.394C489.08,115.915,479.363,125.47,470.689,136.113"/>
		<radialGradient id="SVGID_2_" cx="422.0703" cy="140.1572" r="45.4468" gradientUnits="userSpaceOnUse">
			<stop  offset="0" style="stop-color:#BCBEC0"/>
			<stop  offset="0.3109" style="stop-color:#C9CBCD"/>
			<stop  offset="0.9158" style="stop-color:#ECECED"/>
			<stop  offset="1" style="stop-color:#F1F2F2"/>
		</radialGradient>
		<path fill="url(#SVGID_2_)" d="M410.489,188.577c12.629,0,25.469,2.201,38.108,6.34c0.512-38.681,5.083-75.285,7.122-89.764
			l-35.117-19.755c-14.379,23.027-25.47,69.25-32.179,105.517C395.552,189.406,402.92,188.577,410.489,188.577"/>
		<radialGradient id="SVGID_3_" cx="691.3652" cy="236.8203" r="74.1509" gradientUnits="userSpaceOnUse">
			<stop  offset="0" style="stop-color:#BCBEC0"/>
			<stop  offset="0.3109" style="stop-color:#C9CBCD"/>
			<stop  offset="0.9158" style="stop-color:#ECECED"/>
			<stop  offset="1" style="stop-color:#F1F2F2"/>
		</radialGradient>
		<path fill="url(#SVGID_3_)" d="M705.581,170.378l2.373,7.919c0.838,2.767,0.324,5.767-1.373,8.1
			c-1.699,2.336-4.402,3.745-7.284,3.811c-18.853,0.403-70.25,7.173-81.429,33.289c-13.356,31.156,24.237,52.989,30.688,56.445
			c27.894,6.897,51.871,16.524,71.874,28.767c7.885-26.899,20.645-60.911,47.281-71.315l-5.953-16.358
			c-13.426,2.123-31.612,6.451-39.101,12.152c-3.161,2.399-7.492,2.535-10.77,0.315c-3.284-2.209-4.799-6.27-3.755-10.094
			c0.908-3.324,8.486-29.495,25.613-42.983l-6.969-15.493L705.581,170.378z"/>
		<radialGradient id="SVGID_4_" cx="390.6113" cy="294.3955" r="75.6323" gradientUnits="userSpaceOnUse">
			<stop  offset="0" style="stop-color:#BCBEC0"/>
			<stop  offset="0.3109" style="stop-color:#C9CBCD"/>
			<stop  offset="0.9158" style="stop-color:#ECECED"/>
			<stop  offset="1" style="stop-color:#F1F2F2"/>
		</radialGradient>
		<path fill="url(#SVGID_4_)" d="M349.685,232.375c-27.956,27.957-22.212,103.262-14.397,149.36
			c3.223-12.726,7.024-25.058,11.081-36.928c26.333-76.96,74.75-112.894,105.985-128.798c-13.814-5.828-28.03-8.955-41.86-8.955
			C387.269,207.055,366.247,215.813,349.685,232.375"/>
		<radialGradient id="SVGID_5_" cx="668.1396" cy="515.6875" r="169.2459" gradientUnits="userSpaceOnUse">
			<stop  offset="0" style="stop-color:#BCBEC0"/>
			<stop  offset="0.3109" style="stop-color:#C9CBCD"/>
			<stop  offset="0.9158" style="stop-color:#ECECED"/>
			<stop  offset="1" style="stop-color:#F1F2F2"/>
		</radialGradient>
		<path fill="url(#SVGID_5_)" d="M759.646,373.789c-17.935-33.437-50.257-56.748-98.403-71.487
			c6.977,19.067,15.124,51.179,9.087,86.792c-0.457,6.059-3.131,55.095,25.66,76.254c15.195,11.352,34.97,8.713,50.426-6.745
			c3.61-3.61,9.46-3.61,13.068,0c3.61,3.608,3.61,9.46,0,13.068c-10.487,10.489-22.793,16.677-35.238,18.527
			c14.655,28.109,2.307,68.272,1.612,70.458c-1.244,3.942-4.876,6.445-8.8,6.445c-0.926,0-1.859-0.14-2.785-0.424
			c-4.867-1.535-7.56-6.726-6.033-11.591c0.17-0.539,16.633-54.255-13.174-68.771c-23.442-11.415-34.44-33.31-39.48-53.696
			c-2.562,5.228-5.439,10.833-8.585,16.786c-0.035,0.08-0.084,0.145-0.119,0.223c-3.761,7.122-7.815,14.662-12.203,22.769
			c-38.279,70.778-95.558,176.716-67.476,245.837c20.62,7.23,39.84,10.838,57.517,10.838h0.008
			c48.424,0,83.611-28.02,104.574-85.986C766.478,540.304,796.772,443.007,759.646,373.789"/>
		<radialGradient id="SVGID_6_" cx="515.3584" cy="418.606" r="238.6526" gradientUnits="userSpaceOnUse">
			<stop  offset="0" style="stop-color:#BCBEC0"/>
			<stop  offset="0.3109" style="stop-color:#C9CBCD"/>
			<stop  offset="0.9158" style="stop-color:#ECECED"/>
			<stop  offset="1" style="stop-color:#F1F2F2"/>
		</radialGradient>
		<path fill="url(#SVGID_6_)" d="M468.316,662.75c27.167,20.217,52.745,35.629,76.645,46.502
			c-17.82-73.787,33.165-171.059,70.264-239.742c-10.419,4.017-21.356,6.871-32.126,9.664c-4.292,1.115-8.529,2.221-12.668,3.378
			c-8.74,3.249-17.067,6.283-25.193,9.204c-2.93,1.472-5.741,3.061-8.346,4.884c-25.082,17.561-23.027,51.237-22.996,51.58
			c0.357,5.073-3.468,9.5-8.541,9.88c-0.234,0.016-0.47,0.027-0.693,0.027c-4.777,0-8.828-3.675-9.196-8.528
			c-0.109-1.285-1.525-23.436,10.003-44.612c-26.207,7.849-49.798,12.668-72.58,12.668c-5.113,0-9.244-4.139-9.244-9.241
			c0-5.107,4.131-9.238,9.244-9.238c19.454,0,39.936-3.898,62.767-10.489c-40.305-1.332-48.821-13.256-52.342-18.181
			c-2.965-4.148-2-9.924,2.149-12.884c4.158-2.973,9.923-2.004,12.897,2.145c3.231,4.526,20.51,18.242,107.187,4.969
			c4.301-1.215,8.621-2.338,12.915-3.451c19.987-5.192,38.874-10.165,52.912-21.859c4.473-8.495,8.387-16.227,11.463-22.984
			c24.733-54.411,0.788-109.958-4.636-121.268c-21.482-11.844-53.481-41.32-37.326-79.038c14.046-32.77,63.045-41.383,86.053-43.646
			l-12.864-42.877c-10.565-1.109-21.114-1.649-31.456-1.649c-54.168,0-124.192,15.435-150.148,88.989
			c-1.052,2.974-3.546,5.21-6.617,5.929c-3.451,0.816-85.349,21.518-121.978,128.596
			C344.692,407.507,299.797,537.341,468.316,662.75"/>
	</g>
	<g display="inline">
		<path fill="#BE1E2D" d="M459.942,138.531c-1.859,18.518-3.623,42.404-3.613,66.349c2.605,1.275,5.191,2.612,7.761,4.061
			c0.654-0.216,1.293-0.422,1.859-0.603c15.392-39.856,50.688-84.502,131.03-94.522c-18.304-17.282-34.156-16.958-35.109-16.923
			c-2.513,0.155-9.058-0.814-10.874-2.56c-1.813-1.742-6.935-4.148-6.935-6.662V70.419l-45.522,2.216l-3.504,31.585
			c-0.473,2.688-1.096,5.029-3.446,6.394C478.333,118.333,468.617,127.889,459.942,138.531"/>
		<path fill="#BE1E2D" d="M399.743,190.995c12.629,0,25.469,2.201,38.107,6.34c0.512-38.681,5.083-75.285,7.122-89.764
			l-35.117-19.755c-14.379,23.027-25.47,69.25-32.179,105.517C384.806,191.824,392.173,190.995,399.743,190.995"/>
		<path fill="#BE1E2D" d="M694.836,172.796l2.373,7.919c0.836,2.767,0.324,5.767-1.375,8.1c-1.699,2.336-4.402,3.745-7.285,3.811
			c-18.852,0.402-70.249,7.172-81.427,33.288c-13.357,31.156,24.236,52.989,30.688,56.445c27.893,6.897,51.87,16.524,71.873,28.767
			c7.885-26.898,20.645-60.911,47.281-71.315l-5.953-16.358c-13.425,2.123-31.612,6.451-39.101,12.152
			c-3.161,2.399-7.492,2.535-10.771,0.315c-3.283-2.209-4.798-6.27-3.754-10.094c0.908-3.324,8.487-29.495,25.615-42.983
			l-6.971-15.493L694.836,172.796z"/>
		<path fill="#BE1E2D" d="M338.938,234.794c-27.956,27.957-22.212,103.262-14.396,149.361c3.223-12.728,7.024-25.059,11.081-36.929
			c26.333-76.96,74.75-112.894,105.985-128.798c-13.814-5.828-28.03-8.955-41.86-8.955
			C376.522,209.474,355.5,218.232,338.938,234.794"/>
		<path fill="#BE1E2D" d="M748.898,376.208c-17.935-33.437-50.257-56.748-98.403-71.487c6.977,19.067,15.124,51.179,9.087,86.792
			c-0.457,6.06-3.131,55.096,25.66,76.254c15.195,11.352,34.972,8.713,50.426-6.744c3.611-3.61,9.46-3.61,13.068,0
			c3.611,3.607,3.611,9.46,0,13.068c-10.488,10.489-22.791,16.676-35.237,18.527c14.654,28.109,2.306,68.272,1.611,70.457
			c-1.244,3.942-4.876,6.445-8.798,6.445c-0.928,0-1.861-0.14-2.785-0.423c-4.869-1.535-7.561-6.726-6.033-11.592
			c0.168-0.538,16.631-54.254-13.176-68.77c-23.442-11.415-34.439-33.31-39.48-53.697c-2.562,5.228-5.439,10.833-8.584,16.787
			c-0.035,0.079-0.084,0.145-0.12,0.222c-3.761,7.123-7.814,14.662-12.202,22.769c-38.278,70.778-95.558,176.716-67.475,245.838
			c20.619,7.229,39.84,10.838,57.515,10.838h0.009c48.423,0,83.61-28.021,104.573-85.986
			C755.732,542.723,786.025,445.425,748.898,376.208"/>
		<path fill="#BE1E2D" d="M457.569,665.168c27.167,20.217,52.745,35.629,76.645,46.503c-17.82-73.787,33.165-171.059,70.264-239.743
			c-10.418,4.017-21.357,6.871-32.126,9.664c-4.292,1.115-8.53,2.221-12.668,3.379c-8.741,3.248-17.067,6.282-25.193,9.203
			c-2.93,1.473-5.741,3.061-8.346,4.885c-25.082,17.56-23.027,51.237-22.996,51.579c0.356,5.074-3.468,9.501-8.541,9.88
			c-0.234,0.017-0.47,0.027-0.693,0.027c-4.777,0-8.828-3.675-9.197-8.527c-0.109-1.286-1.525-23.437,10.003-44.613
			c-26.207,7.85-49.798,12.668-72.581,12.668c-5.112,0-9.244-4.138-9.244-9.241c0-5.107,4.131-9.237,9.244-9.237
			c19.455,0,39.937-3.898,62.767-10.489c-40.305-1.333-48.822-13.257-52.342-18.182c-2.965-4.147-2-9.923,2.148-12.883
			c4.158-2.974,9.924-2.004,12.897,2.145c3.231,4.525,20.509,18.242,107.187,4.968c4.3-1.214,8.622-2.337,12.914-3.451
			c19.987-5.191,38.875-10.165,52.913-21.858c4.474-8.496,8.387-16.227,11.463-22.986c24.732-54.41,0.788-109.958-4.636-121.267
			c-21.482-11.844-53.482-41.32-37.326-79.038c14.046-32.77,63.044-41.383,86.052-43.646l-12.864-42.877
			c-10.565-1.109-21.114-1.649-31.455-1.649c-54.168,0-124.192,15.435-150.148,88.988c-1.052,2.974-3.547,5.21-6.617,5.929
			c-3.451,0.816-85.349,21.518-121.978,128.596C333.946,409.925,289.051,539.76,457.569,665.168"/>
	</g>
</g>
<g id="kidneys" display="none">
	<g display="inline">
		<radialGradient id="SVGID_7_" cx="469.5547" cy="355.5864" r="38.6827" gradientUnits="userSpaceOnUse">
			<stop  offset="0" style="stop-color:#FFFFFF"/>
			<stop  offset="1" style="stop-color:#A7A9AC"/>
		</radialGradient>
		<path fill="url(#SVGID_7_)" d="M453.594,340.948c-11.417,9.47-23.107,16.192-32.92,20.812
			c10.387,4.613,21.503,10.59,32.646,18.391c25.581-11.219,50.93-19.974,65.115-24.588c-2.452-9.212-5.048-18.326-7.022-24.539
			C493.005,336.452,473.638,339.724,453.594,340.948"/>
		<radialGradient id="SVGID_8_" cx="456.0752" cy="454.4834" r="66.7005" gradientUnits="userSpaceOnUse">
			<stop  offset="0" style="stop-color:#FFFFFF"/>
			<stop  offset="1" style="stop-color:#A7A9AC"/>
		</radialGradient>
		<path fill="url(#SVGID_8_)" d="M433.244,396.969c-11.824-7.403-23.338-14.26-33.424-17.876
			c-2.833,17.973,8.858,34.454,10.956,37.405c2.527,2.64,11.514,15.601,21.46,31.031c23.751,23.531,38.312,60.367,45.189,82.344
			h35.345C503.344,474.934,476.631,424.127,433.244,396.969"/>
		<radialGradient id="SVGID_9_" cx="306.9492" cy="393.3447" r="224.7603" gradientUnits="userSpaceOnUse">
			<stop  offset="0" style="stop-color:#FFFFFF"/>
			<stop  offset="1" style="stop-color:#A7A9AC"/>
		</radialGradient>
		<path fill="url(#SVGID_9_)" d="M335.407,496.674c-1.507,0.676-3.08,0.986-4.63,0.986c-4.319,0-8.439-2.479-10.317-6.674
			c-2.57-5.688-0.021-12.383,5.682-14.947c43.446-19.539,57.095-61.569,57.454-62.717c-5.349-12.151-9.855-29.443-4.265-47.287
			c-18.225-7.474-52.255-25.044-65.341-56.215c-2.409-5.757,0.295-12.383,6.052-14.797c5.762-2.42,12.388,0.295,14.802,6.052
			c10.671,25.425,44.422,41.413,59.884,46.665c10.623-3.354,48.125-17.286,68.571-52.336c15.821-27.115,18.22-61.167,7.098-101.174
			c-11.68-42.057-56.231-69.263-113.492-69.263c-59.944,0-129.737,31.536-162.614,100.943c10.8-2.044,24.47-2.022,41.906,1.846
			c6.1,1.362,9.947,7.393,8.584,13.493c-1.352,6.095-7.398,9.941-13.482,8.59c-30.709-6.825-44.203,0.933-49.798,6.867
			c-10.526,16.975-81.661,145.532-20.006,279.101c34.476,74.713,97.864,125.916,169.562,125.916h0.021
			c50.77,0,92.789-31.074,104.543-67.514c23.482-72.793-22.818-138.053-37.357-155.316
			C389.267,456.371,370.5,480.889,335.407,496.674"/>
		<radialGradient id="SVGID_10_" cx="626.3691" cy="355.5835" r="38.6991" gradientUnits="userSpaceOnUse">
			<stop  offset="0" style="stop-color:#FFFFFF"/>
			<stop  offset="1" style="stop-color:#A7A9AC"/>
		</radialGradient>
		<path fill="url(#SVGID_10_)" d="M675.277,361.732c-9.797-4.604-21.481-11.331-32.898-20.779
			c-20.065-1.217-39.466-4.49-57.899-9.93c-1.975,6.218-4.561,15.327-7.018,24.545c14.186,4.604,39.54,13.358,65.11,24.576
			C653.731,372.333,664.869,366.345,675.277,361.732"/>
		<radialGradient id="SVGID_11_" cx="639.7988" cy="455.2422" r="66.263" gradientUnits="userSpaceOnUse">
			<stop  offset="0" style="stop-color:#FFFFFF"/>
			<stop  offset="1" style="stop-color:#A7A9AC"/>
		</radialGradient>
		<path fill="url(#SVGID_11_)" d="M685.096,415.629c2.049-2.908,13.777-17.034,10.934-35.019
			c-38.339,13.525-97.44,61.36-112.902,149.262h35.346c6.803-21.977,21.181-58.674,44.551-82.107
			C673.185,431.992,682.488,418.366,685.096,415.629"/>
		<radialGradient id="SVGID_12_" cx="788.9805" cy="386.7676" r="220.8627" gradientUnits="userSpaceOnUse">
			<stop  offset="0" style="stop-color:#FFFFFF"/>
			<stop  offset="1" style="stop-color:#A7A9AC"/>
		</radialGradient>
		<path fill="url(#SVGID_12_)" d="M914.387,256.668c-5.602-5.923-19.11-13.638-49.788-6.835c-6.063,1.362-12.125-2.484-13.498-8.584
			c-1.342-6.094,2.5-12.141,8.605-13.493c17.426-3.863,31.096-3.89,41.9-1.846c-32.877-69.408-102.665-100.943-162.625-100.943
			c-57.267,0-101.796,27.185-113.492,69.247c-11.116,39.997-8.723,74.022,7.104,101.153c20.463,35.092,58.028,48.982,68.63,52.309
			c10.762-3.777,48.092-18.664,59.82-46.605c2.436-5.757,9.056-8.461,14.818-6.047c5.74,2.42,8.455,9.045,6.03,14.803
			c-13.059,31.139-47.041,48.709-65.282,56.188c5.537,17.822,0.998,35.076-4.356,47.159c0,0.042,0.021,0.063,0.021,0.085
			c0.247,0.763,13.82,43.157,57.481,62.772c5.697,2.574,8.24,9.27,5.676,14.957c-1.889,4.186-5.987,6.674-10.312,6.674
			c-1.556,0-3.133-0.322-4.625-0.986c-35.388-15.902-54.165-43.371-63.071-60.84c-14.765,17.564-60.421,79.639-37.147,151.777
			c11.761,36.461,53.779,60.957,104.575,60.957c71.677,0,135.07-44.615,169.557-119.34
			C996.235,395.252,924.88,273.359,914.387,256.668"/>
	</g>
	<g display="inline">
		<path fill="#BE1E2D" d="M445.347,342.682c-11.417,9.469-23.107,16.192-32.92,20.811c10.387,4.614,21.503,10.59,32.646,18.391
			c25.581-11.218,50.93-19.974,65.115-24.588c-2.452-9.212-5.048-18.327-7.022-24.54
			C484.758,338.186,465.391,341.458,445.347,342.682"/>
		<path fill="#BE1E2D" d="M424.997,398.703c-11.824-7.403-23.338-14.26-33.424-17.876c-2.833,17.973,8.858,34.454,10.956,37.405
			c2.527,2.64,11.514,15.602,21.46,31.031c23.751,23.531,38.312,60.367,45.189,82.343h35.345
			C495.097,476.668,468.384,425.861,424.997,398.703"/>
		<path fill="#BE1E2D" d="M327.16,498.407c-1.507,0.676-3.08,0.987-4.63,0.987c-4.319,0-8.439-2.479-10.317-6.674
			c-2.57-5.688-0.021-12.383,5.682-14.947c43.446-19.54,57.095-61.569,57.454-62.718c-5.349-12.151-9.855-29.443-4.265-47.287
			c-18.225-7.474-52.255-25.044-65.341-56.215c-2.409-5.757,0.295-12.382,6.052-14.797c5.762-2.419,12.388,0.295,14.802,6.052
			c10.671,25.425,44.422,41.413,59.884,46.665c10.623-3.353,48.125-17.286,68.571-52.336c15.821-27.115,18.22-61.167,7.098-101.174
			c-11.68-42.057-56.231-69.263-113.492-69.263c-59.944,0-129.737,31.536-162.614,100.943c10.8-2.044,24.47-2.022,41.906,1.846
			c6.1,1.362,9.947,7.393,8.584,13.493c-1.352,6.095-7.398,9.941-13.482,8.59c-30.709-6.825-44.203,0.933-49.798,6.867
			c-10.526,16.975-81.661,145.532-20.006,279.1c34.476,74.713,97.864,125.917,169.562,125.917h0.021
			c50.77,0,92.789-31.074,104.543-67.514c23.482-72.793-22.818-138.053-37.357-155.317
			C381.02,458.105,362.253,482.623,327.16,498.407"/>
		<path fill="#BE1E2D" d="M667.03,363.466c-9.797-4.603-21.481-11.331-32.898-20.779c-20.065-1.218-39.466-4.491-57.899-9.931
			c-1.975,6.218-4.561,15.328-7.018,24.545c14.186,4.604,39.54,13.359,65.11,24.577C645.484,374.067,656.622,368.08,667.03,363.466"
			/>
		<path fill="#BE1E2D" d="M676.849,417.363c2.049-2.908,13.777-17.034,10.934-35.018c-38.339,13.525-97.44,61.36-112.902,149.261
			h35.346c6.803-21.976,21.181-58.673,44.551-82.106C664.938,433.727,674.241,420.1,676.849,417.363"/>
		<path fill="#BE1E2D" d="M906.14,258.402c-5.602-5.923-19.11-13.638-49.788-6.835c-6.063,1.362-12.125-2.484-13.498-8.584
			c-1.342-6.094,2.5-12.141,8.605-13.493c17.426-3.863,31.096-3.89,41.9-1.846c-32.877-69.408-102.665-100.943-162.625-100.943
			c-57.267,0-101.796,27.185-113.492,69.247c-11.116,39.997-8.723,74.021,7.104,101.152c20.463,35.093,58.028,48.983,68.63,52.309
			c10.762-3.777,48.092-18.665,59.82-46.606c2.436-5.756,9.056-8.46,14.818-6.046c5.74,2.42,8.455,9.045,6.03,14.802
			c-13.059,31.139-47.041,48.709-65.282,56.188c5.537,17.823,0.998,35.076-4.356,47.159c0,0.042,0.021,0.063,0.021,0.085
			c0.247,0.763,13.82,43.157,57.481,62.771c5.697,2.575,8.24,9.271,5.676,14.958c-1.889,4.185-5.987,6.674-10.312,6.674
			c-1.556,0-3.133-0.322-4.625-0.987c-35.388-15.902-54.165-43.371-63.071-60.84c-14.765,17.565-60.421,79.639-37.147,151.777
			c11.761,36.461,53.779,60.957,104.575,60.957c71.677,0,135.07-44.615,169.557-119.34
			C987.988,396.986,916.633,275.093,906.14,258.402"/>
	</g>
</g>
<g id="liver" display="none">
	<g display="inline">
		<radialGradient id="SVGID_13_" cx="414.7202" cy="626.7754" r="23.7774" gradientUnits="userSpaceOnUse">
			<stop  offset="0" style="stop-color:#FFFFFF"/>
			<stop  offset="1" style="stop-color:#A7A9AC"/>
		</radialGradient>
		<path fill="url(#SVGID_13_)" d="M385.558,630.104c11.544,11.225,23.764,15.799,34.489,12.219
			c9.956-3.311,19.354-14.303,23.835-32.289C422.169,617.783,402.246,624.568,385.558,630.104"/>
		<radialGradient id="SVGID_14_" cx="860.0195" cy="313.6533" r="144.1634" gradientUnits="userSpaceOnUse">
			<stop  offset="0" style="stop-color:#FFFFFF"/>
			<stop  offset="1" style="stop-color:#A7A9AC"/>
		</radialGradient>
		<path fill="url(#SVGID_14_)" d="M936.289,340.682c5.18-7.2,10.404-14.288,15.527-21.251
			c31.904-43.331,62.057-84.239,50.215-107.688c-14.02-27.721-87.088-41.772-217.152-41.772c-1.34,0-2.738,0.012-4.102,0.024
			c-33.541,48.291-44.35,106.544-47.574,146.35c7.229,44.338,1.363,90.964-17.826,140.992
			C761.281,451.428,873.105,428.328,936.289,340.682"/>
		<radialGradient id="SVGID_15_" cx="704.7578" cy="214.9961" r="45.4946" gradientUnits="userSpaceOnUse">
			<stop  offset="0" style="stop-color:#FFFFFF"/>
			<stop  offset="1" style="stop-color:#A7A9AC"/>
		</radialGradient>
		<path fill="url(#SVGID_15_)" d="M665.563,172.987c-2.32,0.106-4.705,0.184-7.063,0.267c26.063,28.729,45.109,57.198,57.896,86.461
			c7.42-33.488,19.094-63.474,34.619-89.436C724.67,170.705,696.096,171.6,665.563,172.987"/>
		<radialGradient id="SVGID_16_" cx="432.9658" cy="430.8398" r="269.7781" gradientUnits="userSpaceOnUse">
			<stop  offset="0" style="stop-color:#FFFFFF"/>
			<stop  offset="1" style="stop-color:#A7A9AC"/>
		</radialGradient>
		<path fill="url(#SVGID_16_)" d="M685.877,463.529c21.074-48.594,29.014-93.449,23.338-136.294
			c-1.031-1.956-1.564-4.184-1.422-6.554c0.035-0.534,0.105-1.032,0.141-1.564c-8.723-50.099-36.254-97.566-83.449-145.152
			c-2.418,0.012-4.801,0.035-7.289,0.035c-32.273,0-65.187-1.149-96.998-2.27c-31.835-1.102-61.88-2.157-91.391-2.157
			c-92.481,0-184.028,9.476-227.299,78.229c-61.513,97.762-48.38,197.195-36.777,284.92c2.513,19.039,4.883,37.002,6.507,54.648
			c5.736,62.857,15.526,104.736,44.492,104.736c23.468,0,59.83-22.631,108.056-67.26c1.387-1.285,3.046-2.246,4.859-2.791
			C331.548,621.186,619.34,533.568,685.877,463.529"/>
	</g>
	<g display="inline">
		<path fill="#BE1E2D" d="M376.684,628.104c11.544,11.225,23.764,15.799,34.489,12.219c9.956-3.311,19.354-14.303,23.835-32.289
			C413.295,615.783,393.371,622.568,376.684,628.104"/>
		<path fill="#BE1E2D" d="M927.414,338.682c5.18-7.2,10.404-14.288,15.527-21.251c31.904-43.331,62.057-84.239,50.215-107.688
			c-14.02-27.721-87.088-41.772-217.152-41.772c-1.34,0-2.738,0.012-4.102,0.024c-33.541,48.291-44.35,106.544-47.574,146.35
			c7.229,44.338,1.363,90.965-17.826,140.992C752.406,449.428,864.23,426.328,927.414,338.682"/>
		<path fill="#BE1E2D" d="M656.688,170.987c-2.32,0.106-4.705,0.184-7.063,0.267c26.063,28.729,45.109,57.198,57.896,86.461
			c7.42-33.488,19.094-63.474,34.619-89.436C715.795,168.705,687.221,169.6,656.688,170.987"/>
		<path fill="#BE1E2D" d="M677.002,461.529c21.074-48.594,29.014-93.449,23.338-136.294c-1.031-1.956-1.564-4.184-1.422-6.554
			c0.035-0.534,0.105-1.032,0.141-1.564c-8.723-50.099-36.254-97.566-83.449-145.152c-2.418,0.012-4.801,0.035-7.289,0.035
			c-32.273,0-65.186-1.149-96.997-2.27c-31.835-1.102-61.88-2.157-91.391-2.157c-92.481,0-184.028,9.476-227.299,78.229
			c-61.513,97.762-48.38,197.195-36.777,284.92c2.513,19.039,4.883,37.002,6.507,54.648c5.736,62.857,15.526,104.736,44.492,104.736
			c23.468,0,59.83-22.631,108.056-67.26c1.387-1.285,3.046-2.246,4.859-2.791C322.674,619.186,610.465,531.568,677.002,461.529"/>
	</g>
</g>
<g id="lungs" display="none">
	<g display="inline">
		<radialGradient id="SVGID_17_" cx="326.252" cy="590.707" r="149.2781" gradientUnits="userSpaceOnUse">
			<stop  offset="0" style="stop-color:#FFFFFF"/>
			<stop  offset="1" style="stop-color:#D1D3D4"/>
		</radialGradient>
		<path fill="url(#SVGID_17_)" d="M280.179,496.393c-18.999-35.34-33.512-68.109-43.717-93.32
			c-4.189,26.9-6.278,55.361-5.392,85.734c1.116,38.047,0.241,77.16-0.601,114.98c-1.652,74.961-3.38,152.488,14.864,171.137
			c3.751,3.844,8.115,4.281,14.612,2.139c36.138-11.879,65.582-32.994,102.846-59.73c17.905-12.846,37.439-26.824,60.211-41.66
			C371.247,636.693,323.339,576.686,280.179,496.393"/>
		<radialGradient id="SVGID_18_" cx="388.2441" cy="536.5684" r="125.9119" gradientUnits="userSpaceOnUse">
			<stop  offset="0" style="stop-color:#FFFFFF"/>
			<stop  offset="1" style="stop-color:#D1D3D4"/>
		</radialGradient>
		<path fill="url(#SVGID_18_)" d="M282.554,426.439c-7.033-5.446-13.508-10.953-19.557-16.444
			c30.877,72.434,91.515,190.1,179.749,253.145c6.399-3.965,12.939-7.951,19.875-12.014c44.177-25.895,52.741-82.848,50.564-149.973
			C402.692,499.629,328.12,461.74,282.554,426.439"/>
		<radialGradient id="SVGID_19_" cx="378.7549" cy="271.4707" r="174.6868" gradientUnits="userSpaceOnUse">
			<stop  offset="0" style="stop-color:#FFFFFF"/>
			<stop  offset="1" style="stop-color:#D1D3D4"/>
		</radialGradient>
		<path fill="url(#SVGID_19_)" d="M296.75,409.985c57.915,44.544,131.405,67.988,215.417,69.41
			c-0.82-13.383-1.892-27.037-3.139-40.868c-0.832-9.352-0.351-29.581,0.339-57.581c2.122-87.594,7.109-292.702-38.981-312.001
			c-8.553-3.571-16.976-5.397-25.003-5.397c-43.641,0-77.154,53.223-106.729,100.172c-3.435,5.464-6.814,10.829-10.161,16.029
			c-32.43,50.466-65.035,109.168-83.148,179.995C257.769,375.187,274.634,392.977,296.75,409.985"/>
		<radialGradient id="SVGID_20_" cx="745.373" cy="535.9043" r="126.3876" gradientUnits="userSpaceOnUse">
			<stop  offset="0" style="stop-color:#FFFFFF"/>
			<stop  offset="1" style="stop-color:#D1D3D4"/>
		</radialGradient>
		<path fill="url(#SVGID_20_)" d="M870.91,408.672c-48.979,44.63-128.988,90.798-250.768,92.478
			c-2.166,67.123,6.388,124.074,50.586,149.98c6.924,4.064,13.477,8.051,19.863,12.006
			C779.372,599.697,840.196,480.98,870.91,408.672"/>
		<radialGradient id="SVGID_21_" cx="807.082" cy="590.6904" r="149.2738" gradientUnits="userSpaceOnUse">
			<stop  offset="0" style="stop-color:#FFFFFF"/>
			<stop  offset="1" style="stop-color:#D1D3D4"/>
		</radialGradient>
		<path fill="url(#SVGID_21_)" d="M902.268,488.807c0.875-30.363-1.213-58.834-5.402-85.746
			c-10.205,25.222-24.72,57.992-43.718,93.332c-43.149,80.281-91.056,140.301-142.813,179.279
			c22.784,14.84,42.307,28.818,60.211,41.666c37.266,26.73,66.699,47.846,102.847,59.729c2.516,0.826,4.803,1.254,6.782,1.254
			c3.129,0,5.534-1.051,7.82-3.391c18.244-18.65,16.526-96.191,14.865-171.174C902.027,565.943,901.151,526.842,902.268,488.807"/>
		<radialGradient id="SVGID_22_" cx="754.5605" cy="271.5171" r="174.7035" gradientUnits="userSpaceOnUse">
			<stop  offset="0" style="stop-color:#FFFFFF"/>
			<stop  offset="1" style="stop-color:#D1D3D4"/>
		</radialGradient>
		<path fill="url(#SVGID_22_)" d="M621.171,479.482c146.882-2.4,228.378-72.5,266.78-119.92
			c-18.125-70.755-50.697-129.397-83.115-179.82c-3.348-5.184-6.716-10.56-10.162-16.029
			c-29.564-46.95-63.087-100.162-106.717-100.162c-8.041,0-16.451,1.816-25.005,5.398c-46.091,19.277-41.103,224.374-38.981,311.946
			c0.678,28.022,1.171,48.273,0.328,57.635C623.063,452.4,621.98,466.072,621.171,479.482"/>
	</g>
	<path display="inline" fill="#BE1E2D" d="M272.934,500.961c-18.999-35.34-33.512-68.109-43.717-93.32
		c-4.189,26.9-6.278,55.361-5.392,85.734c1.116,38.047,0.241,77.16-0.601,114.98c-1.652,74.961-3.38,152.488,14.864,171.137
		c3.751,3.844,8.115,4.281,14.612,2.139c36.138-11.879,65.582-32.994,102.846-59.73c17.905-12.846,37.439-26.824,60.211-41.66
		C364.001,641.262,316.094,581.254,272.934,500.961"/>
	<path display="inline" fill="#BE1E2D" d="M275.308,431.008c-7.033-5.447-13.508-10.953-19.557-16.444
		c30.877,72.434,91.515,190.1,179.749,253.145c6.399-3.965,12.939-7.951,19.875-12.014c44.177-25.895,52.741-82.848,50.564-149.973
		C395.447,504.197,320.874,466.309,275.308,431.008"/>
	<path display="inline" fill="#BE1E2D" d="M289.504,414.553c57.915,44.544,131.405,67.988,215.417,69.41
		c-0.82-13.383-1.892-27.037-3.139-40.869c-0.832-9.352-0.351-29.58,0.339-57.58c2.122-87.594,7.109-292.702-38.981-312.001
		c-8.553-3.571-16.976-5.397-25.003-5.397c-43.641,0-77.154,53.223-106.729,100.172c-3.435,5.464-6.814,10.829-10.161,16.029
		c-32.43,50.466-65.035,109.168-83.148,179.995C250.523,379.755,267.389,397.545,289.504,414.553"/>
	<path display="inline" fill="#BE1E2D" d="M863.664,413.241c-48.979,44.63-128.988,90.798-250.768,92.478
		c-2.166,67.123,6.389,124.074,50.586,149.98c6.924,4.064,13.477,8.051,19.863,12.006
		C772.127,604.266,832.951,485.549,863.664,413.241"/>
	<path display="inline" fill="#BE1E2D" d="M895.021,493.375c0.875-30.363-1.213-58.834-5.402-85.746
		c-10.205,25.222-24.719,57.992-43.717,93.332c-43.15,80.281-91.057,140.301-142.814,179.279
		c22.785,14.84,42.307,28.818,60.211,41.666c37.266,26.73,66.699,47.846,102.848,59.729c2.516,0.826,4.803,1.254,6.781,1.254
		c3.129,0,5.535-1.051,7.82-3.391c18.244-18.65,16.527-96.191,14.865-171.174C894.781,570.512,893.906,531.41,895.021,493.375"/>
	<path display="inline" fill="#BE1E2D" d="M613.926,484.051c146.881-2.4,228.377-72.5,266.779-119.92
		c-18.125-70.755-50.697-129.397-83.115-179.82c-3.348-5.184-6.715-10.56-10.162-16.029
		C757.863,121.332,724.342,68.12,680.711,68.12c-8.041,0-16.451,1.816-25.004,5.398c-46.092,19.277-41.104,224.374-38.982,311.946
		c0.678,28.022,1.172,48.272,0.328,57.635C615.816,456.969,614.734,470.641,613.926,484.051"/>
</g>
<g id="pancreas" display="none">
	<g display="inline">
		<linearGradient id="SVGID_23_" gradientUnits="userSpaceOnUse" x1="195.7471" y1="426.4805" x2="976.3008" y2="426.4805">
			<stop  offset="0" style="stop-color:#FFFFFF"/>
			<stop  offset="1" style="stop-color:#A7A9AC"/>
		</linearGradient>
		<path fill="url(#SVGID_23_)" d="M971.393,202.421c0,0-19.131-24.164-51.348,0c0,0-23.154-23.154-58.395,0
			c0,0-36.248-15.099-49.336,10.066c0,0-39.264-23.154-53.359,12.086c0,0-36.242-23.154-55.373,8.054c0,0-39.27-27.185-67.457,0
			c0,0-57.391-17.119-82.565,18.121c0,0-24.155-23.153-59.395,0c0,0-60.413-15.099-86.588,9.064c0,0-48.986-9.064-77.353,14.098
			c0,0-41.461,4.023-60.583,39.263c0,0-43.294,23.153-42.284,62.424c0,0-51.349,39.263-23.154,98.666
			c0,0-17.119,40.273,4.023,82.557c0,0,12.078,53.361,52.358,55.381c0,0,29.197,40.271,78.525,37.25c0,0,63.435,26.51,99.676,0.164
			c0,0,39.271-14.262,58.401-42.447c0,0,30.198-30.207,8.054-69.479c0,0,3.021-37.25-25.173-42.283c0,0,46.315-2.012,59.403-20.133
			c0,0,55.371,1.002,76.513-25.172c0,0,54.371-6.043,74.51-35.241c0,0,53.361-8.054,81.547-37.251c0,0,39.271-9.064,67.459-22.151
			c0,0,49.336-2.012,61.414-24.164c0,0,42.293-13.088,52.357-42.284c0,0,26.176-26.175,18.121-47.317
			C971.393,241.691,982.436,210.483,971.393,202.421"/>
		<linearGradient id="SVGID_24_" gradientUnits="userSpaceOnUse" x1="302.9268" y1="474.0371" x2="337.4116" y2="474.0371">
			<stop  offset="0" style="stop-color:#FFFFFF"/>
			<stop  offset="1" style="stop-color:#A7A9AC"/>
		</linearGradient>
		<path fill="url(#SVGID_24_)" d="M317.919,541.672c29.563-42.064,23.667-94.879-5.359-135.298
			c-3.762-5.221-12.493-0.204-8.698,5.082c27.136,37.804,32.983,85.83,5.359,125.134
			C305.491,541.916,314.23,546.939,317.919,541.672"/>
		<linearGradient id="SVGID_25_" gradientUnits="userSpaceOnUse" x1="325.3496" y1="387.2896" x2="401.5151" y2="387.2896">
			<stop  offset="0" style="stop-color:#FFFFFF"/>
			<stop  offset="1" style="stop-color:#A7A9AC"/>
		</linearGradient>
		<path fill="url(#SVGID_25_)" d="M334.093,459.277c39.312-34.734,74.429-87.264,66.22-141.642
			c-0.961-6.41-10.669-3.673-9.708,2.671c7.615,50.444-27.421,99.854-63.63,131.844
			C322.113,456.459,329.248,463.553,334.093,459.277"/>
		<linearGradient id="SVGID_26_" gradientUnits="userSpaceOnUse" x1="382.4326" y1="337.5308" x2="569.7563" y2="337.5308">
			<stop  offset="0" style="stop-color:#FFFFFF"/>
			<stop  offset="1" style="stop-color:#A7A9AC"/>
		</linearGradient>
		<path fill="url(#SVGID_26_)" d="M387.282,383.797c66.277-3.42,144.525-26.207,181.67-85.105c3.478-5.505-5.245-10.555-8.698-5.074
			c-35.02,55.526-110.442,76.888-172.972,80.114C380.832,374.057,380.8,384.14,387.282,383.797"/>
		<linearGradient id="SVGID_27_" gradientUnits="userSpaceOnUse" x1="530.376" y1="301.5996" x2="778.0234" y2="301.5996">
			<stop  offset="0" style="stop-color:#FFFFFF"/>
			<stop  offset="1" style="stop-color:#A7A9AC"/>
		</linearGradient>
		<path fill="url(#SVGID_27_)" d="M535.171,334.526c78.917,9.757,189.489,6.417,241.862-62.685c3.926-5.171-4.828-10.18-8.705-5.074
			c-49.68,65.544-158.338,66.937-233.157,57.693C528.737,323.662,528.818,333.744,535.171,334.526"/>
		<linearGradient id="SVGID_28_" gradientUnits="userSpaceOnUse" x1="733.2715" y1="279.7539" x2="910.5732" y2="279.7539">
			<stop  offset="0" style="stop-color:#FFFFFF"/>
			<stop  offset="1" style="stop-color:#A7A9AC"/>
		</linearGradient>
		<path fill="url(#SVGID_28_)" d="M738.098,305.899c57.211,5.147,129.311-1.539,171.051-45.11c4.479-4.691-2.631-11.825-7.135-7.126
			c-39.857,41.633-109.254,47.089-163.916,42.162C731.631,295.247,731.695,305.321,738.098,305.899"/>
		<linearGradient id="SVGID_29_" gradientUnits="userSpaceOnUse" x1="325.5488" y1="510.5723" x2="439.2935" y2="510.5723">
			<stop  offset="0" style="stop-color:#FFFFFF"/>
			<stop  offset="1" style="stop-color:#A7A9AC"/>
		</linearGradient>
		<path fill="url(#SVGID_29_)" d="M331.878,494.313c35.679-5.221,74.6,14.342,98.951,41.666c4.341,4.854,11.435-2.297,7.126-7.127
			c-26.794-30.068-67.669-50.256-108.748-44.246C322.797,485.541,325.526,495.242,331.878,494.313"/>
		<linearGradient id="SVGID_30_" gradientUnits="userSpaceOnUse" x1="365.9487" y1="432.3135" x2="447.4531" y2="432.3135">
			<stop  offset="0" style="stop-color:#FFFFFF"/>
			<stop  offset="1" style="stop-color:#A7A9AC"/>
		</linearGradient>
		<path fill="url(#SVGID_30_)" d="M370.799,413.947c28.317,1.589,54.028,19.913,67.294,44.313c3.119,5.701,11.792,0.619,8.706-5.082
			c-15.026-27.617-44.166-47.513-76-49.296C364.316,403.514,364.349,413.588,370.799,413.947"/>
		<linearGradient id="SVGID_31_" gradientUnits="userSpaceOnUse" x1="486.8945" y1="376.8828" x2="591.1831" y2="376.8828">
			<stop  offset="0" style="stop-color:#FFFFFF"/>
			<stop  offset="1" style="stop-color:#A7A9AC"/>
		</linearGradient>
		<path fill="url(#SVGID_31_)" d="M491.738,359.789c35.003-2.866,70.967,12.322,89.935,42.269c3.462,5.465,12.184,0.415,8.706-5.082
			c-20.8-32.829-60.021-50.42-98.641-47.252C485.305,350.252,485.256,360.318,491.738,359.789"/>
		<linearGradient id="SVGID_32_" gradientUnits="userSpaceOnUse" x1="676.0186" y1="349.9028" x2="722.7285" y2="349.9028">
			<stop  offset="0" style="stop-color:#FFFFFF"/>
			<stop  offset="1" style="stop-color:#A7A9AC"/>
		</linearGradient>
		<path fill="url(#SVGID_32_)" d="M678.539,327.311c18.406,9.699,31.379,29.334,34.076,49.719c0.83,6.345,10.896,6.434,10.064,0
			c-3.15-23.911-17.289-46.934-39.059-58.417C677.889,315.591,672.797,324.281,678.539,327.311"/>
	</g>
	<path display="inline" fill="#BE1E2D" d="M969.125,191.349c0,0-19.131-24.164-51.348,0c0,0-23.154-23.154-58.395,0
		c0,0-36.248-15.099-49.336,10.066c0,0-39.264-23.154-53.359,12.086c0,0-36.242-23.154-55.373,8.054c0,0-39.27-27.185-67.457,0
		c0,0-57.391-17.119-82.565,18.121c0,0-24.155-23.153-59.395,0c0,0-60.413-15.099-86.588,9.064c0,0-48.986-9.064-77.353,14.098
		c0,0-41.461,4.023-60.583,39.263c0,0-43.294,23.153-42.284,62.424c0,0-51.349,39.263-23.154,98.666c0,0-17.119,40.273,4.023,82.557
		c0,0,12.078,53.361,52.358,55.381c0,0,29.197,40.271,78.525,37.25c0,0,63.435,26.51,99.676,0.164c0,0,39.271-14.262,58.401-42.447
		c0,0,30.198-30.207,8.054-69.479c0,0,3.021-37.25-25.173-42.283c0,0,46.315-2.012,59.403-20.133c0,0,55.371,1.002,76.513-25.172
		c0,0,54.371-6.043,74.51-35.241c0,0,53.361-8.054,81.547-37.251c0,0,39.271-9.064,67.459-22.151c0,0,49.336-2.012,61.414-24.164
		c0,0,42.293-13.088,52.357-42.284c0,0,26.176-26.175,18.121-47.317C969.125,230.619,980.168,199.411,969.125,191.349"/>
	<g display="inline">
		<path fill="none" stroke="#6D6E71" stroke-miterlimit="10" d="M315.651,530.6c29.563-42.064,23.667-94.879-5.359-135.298
			c-3.762-5.221-12.493-0.204-8.698,5.082c27.136,37.804,32.983,85.83,5.359,125.134C303.224,530.844,311.962,535.867,315.651,530.6
			"/>
		<path fill="none" stroke="#6D6E71" stroke-miterlimit="10" d="M331.826,448.205c39.312-34.735,74.429-87.264,66.22-141.642
			c-0.961-6.41-10.669-3.673-9.708,2.671c7.615,50.444-27.421,99.854-63.63,131.844C319.846,445.387,326.98,452.48,331.826,448.205"
			/>
		<path fill="none" stroke="#6D6E71" stroke-miterlimit="10" d="M385.015,372.725c66.277-3.42,144.525-26.207,181.67-85.105
			c3.478-5.505-5.245-10.555-8.698-5.074c-35.02,55.526-110.442,76.888-172.972,80.114
			C378.564,362.985,378.532,373.068,385.015,372.725"/>
		<path fill="none" stroke="#6D6E71" stroke-miterlimit="10" d="M532.903,323.454c78.917,9.757,189.489,6.417,241.862-62.685
			c3.926-5.171-4.828-10.18-8.705-5.074c-49.68,65.544-158.338,66.937-233.157,57.693
			C526.469,312.589,526.551,322.672,532.903,323.454"/>
		<path fill="none" stroke="#6D6E71" stroke-miterlimit="10" d="M735.83,294.827c57.211,5.147,129.311-1.539,171.051-45.11
			c4.479-4.691-2.631-11.825-7.135-7.126c-39.857,41.633-109.254,47.089-163.916,42.162
			C729.363,284.175,729.428,294.249,735.83,294.827"/>
		<path fill="none" stroke="#6D6E71" stroke-miterlimit="10" d="M329.61,483.24c35.679-5.221,74.6,14.342,98.951,41.666
			c4.341,4.854,11.435-2.297,7.126-7.127c-26.794-30.068-67.669-50.256-108.748-44.246C320.53,474.469,323.258,484.17,329.61,483.24
			"/>
		<path fill="none" stroke="#6D6E71" stroke-miterlimit="10" d="M368.531,402.875c28.317,1.589,54.028,19.913,67.294,44.313
			c3.119,5.701,11.792,0.619,8.706-5.082c-15.026-27.617-44.166-47.513-76-49.296C362.048,392.442,362.081,402.516,368.531,402.875"
			/>
		<path fill="none" stroke="#6D6E71" stroke-miterlimit="10" d="M489.471,348.716c35.003-2.866,70.967,12.322,89.936,42.269
			c3.461,5.465,12.184,0.415,8.705-5.082c-20.799-32.829-60.021-50.42-98.641-47.252
			C483.037,339.18,482.988,349.246,489.471,348.716"/>
		<path fill="none" stroke="#6D6E71" stroke-miterlimit="10" d="M676.271,316.238c18.406,9.699,31.379,29.334,34.076,49.719
			c0.83,6.345,10.896,6.434,10.064,0c-3.15-23.911-17.289-46.934-39.059-58.417C675.621,304.519,670.529,313.208,676.271,316.238"/>
	</g>
</g>
<g id="intestine">
	<path fill="#BE1E2D" d="M496.958,664.361c0,0-13.967-20.089-28.809-8.728c-14.856,11.354-70.737,47.169-75.108-34.93
		c0,0-48.897,20.948-49.78-25.328c0,0-48.912,6.108-40.169-47.162c0,0-46.285-23.575-20.958-56.763c0,0-48.043-27.071-19.22-63.746
		c0,0-43.752-38.433-9.212-75.101c0,0-34.46-53.283,5.717-81.223c0,0-52.385-56.764-2.612-89.951c0,0,5.239-85.586,69.861-68.118
		c0,0,40.177-48.021,91.701,3.495c0,0,62.878-28.823,83.828,38.426c0,0,44.548-39.294,82.099,4.371c0,0,23.577-36.682,60.258-22.708
		c0,0,20.958-57.197,70.73-36.016c0,0,55.887-35.589,85.579,10.696c0,0,61.141-9.61,60.258,53.268c0,0,56.763,21.818,20.083,89.067
		c0,0,35.805,45.417-6.984,96.941c0,0,29.692,42.797-25.312,96.933c0,0,25.312,31.443-10.486,72.489
		c0,0,11.346,53.268-63.756,76.845c0,0-1.735,30.567-89.934,29.692c0,0-24.467,16.592-64.639,10.483
		c0,0-37.549,25.321-35.798,88.192c0,0-22.701-10.436-49.78,0c0,0-24.459-100.43-6.122-138.854
		c18.337-38.42,89.082-27.94,89.082-27.94s6.107-40.169,55.013-43.665c0,0,14.849-29.685,46.292-26.189
		c0,0,6.977-44.548,39.295-44.548c0,0-14.857-49.779,9.602-58.507c0,0-20.073-52.393,2.627-68.118c0,0-7.866-50.648,11.354-62.002
		c0,0-23.583-41.914-6.115-54.136c0,0-29.684,20.074-55.019,12.222c0,0-16.601,50.648-64.622,47.153c0,0-32.319,25.321-68.11,14.85
		c0,0-27.948,20.074-75.977-15.725c0,0-57.646,12.237-68.118-27.064c0,0-48.912,9.61-63.754-18.337c0,0,21.818,48.028-13.981,75.983
		c0,0,20.088,42.782,8.742,66.359c0,0,32.318,18.953,13.974,61.437c0,0,35.798,23.266,19.198,66.938
		c0,0,40.177,16.594,38.433,61.129c0,0,43.673,14.84,41.921,51.522C486.486,634.669,501.329,643.404,496.958,664.361"/>
	<path fill="#B3362C" d="M399.691,612.838c5.116-26.645,26.493-49.225,48.268-63.538c3.524-2.308,0.239-7.981-3.299-5.657
		c-23.143,15.203-45.844,39.157-51.286,67.458C392.578,615.225,398.896,616.985,399.691,612.838"/>
	<path fill="#B3362C" d="M318.476,543.853c11.188-33.527,51.988-49.326,83.286-54.485c4.168-0.687,2.395-6.99-1.73-6.31
		c-33.852,5.572-75.918,23.236-87.88,59.051C310.82,546.116,317.151,547.83,318.476,543.853"/>
	<path fill="#B3362C" d="M273.103,429.146c23.106-27.658,67.604-26.37,98.981-19.336c4.11,0.926,5.862-5.399,1.737-6.318
		c-33.592-7.525-80.702-8.474-105.356,21.016C265.779,427.727,270.382,432.387,273.103,429.146"/>
	<path fill="#B3362C" d="M264.578,340.591c29.33-14.01,64.637-12.288,91.882,5.232c3.546,2.294,6.831-3.387,3.3-5.651
		c-29.315-18.866-67.018-20.263-98.497-5.247C257.45,336.742,260.779,342.394,264.578,340.591"/>
	<path fill="#B3362C" d="M272.437,267.228c23.757-10.355,52.233-4.675,71.135,13.453c3.046,2.923,7.671-1.693,4.625-4.632
		c-21.124-20.262-51.973-26.283-79.074-14.48C265.265,263.254,268.602,268.899,272.437,267.228"/>
	<path fill="#B3362C" d="M285.629,162.008c32.542-2.909,57.957,24.163,69.312,51.734c1.599,3.85,7.931,2.164,6.324-1.744
		c-12.411-30.083-39.989-59.723-75.636-56.546C281.454,155.829,281.425,162.378,285.629,162.008"/>
	<path fill="#B3362C" d="M409.924,127.859c18.945,21.094,20.581,58.84,20.885,85.015c0.058,4.219,6.599,4.219,6.542,0
		c-0.318-28.345-2.503-67.047-22.78-89.646C411.74,120.08,407.116,124.719,409.924,127.859"/>
	<path fill="#B3362C" d="M508.406,167.667c23.903,14.394,18.729,58.442,15.096,80.137c-0.702,4.132,5.615,5.898,6.303,1.744
		c4.205-25.075,8.865-71.309-18.084-87.541C508.08,159.83,504.795,165.489,508.406,167.667"/>
	<path fill="#B3362C" d="M587.581,170.866c13.206,25.676,11.347,57.357,0,83.148c-1.701,3.82,3.952,7.171,5.646,3.307
		c12.365-28.1,14.399-61.793,0-89.762C591.293,163.803,585.648,167.11,587.581,170.866"/>
	<path fill="#B3362C" d="M648.996,152.825c25.807,17.505,27.246,53.97,20.344,81.013c-1.05,4.096,5.267,5.826,6.317,1.736
		c7.714-30.212,5.058-69.137-23.346-88.416C648.803,144.785,645.531,150.466,648.996,152.825"/>
	<path fill="#B3362C" d="M718.779,112.981c33.028,5.833,45.279,44.02,46.494,72.771c0.182,4.204,6.738,4.226,6.556,0
		c-1.344-31.493-15.312-72.727-51.319-79.081C716.391,105.933,714.618,112.243,718.779,112.981"/>
	<path fill="#B3362C" d="M844.319,167.559c-11.927,21.015-39.642,33.665-60.918,41.726c-3.915,1.469-2.206,7.809,1.73,6.31
		c22.939-8.684,52.015-22.129,64.846-44.729C852.062,167.182,846.403,163.883,844.319,167.559"/>
	<path fill="#B3362C" d="M780.008,271.446c29.004,18.642,66.438,14.951,95.861,0c3.771-1.917,0.458-7.562-3.299-5.666
		c-27.398,13.916-62.286,17.346-89.271,0C779.739,263.5,776.461,269.167,780.008,271.446"/>
	<path fill="#B3362C" d="M771.845,329.556c18.975,28.809,55.823,39.114,88.408,35.04c4.14-0.506,4.184-7.063,0-6.542
		c-30.141,3.756-65.057-4.914-82.75-31.797C775.182,322.746,769.515,326.01,771.845,329.556"/>
	<path fill="#B3362C" d="M771.504,396.256c11.311,26.869,35.258,51.661,66.033,51.313c4.228-0.042,4.241-6.592,0-6.549
		c-27.904,0.312-50.155-23.792-59.715-46.501C776.217,390.69,769.869,392.369,771.504,396.256"/>
	<path fill="#B3362C" d="M760.158,455.646c7.309,30.437,31.363,56.546,62.553,62.104c4.123,0.737,5.884-5.572,1.729-6.318
		c-29.063-5.175-51.162-29.163-57.966-57.529C765.483,449.798,759.174,451.542,760.158,455.646"/>
	<path fill="#B3362C" d="M716.485,498.449c-8.612,33.1,7.438,65.917,35.574,83.604c3.583,2.251,6.868-3.416,3.301-5.666
		c-25.61-16.079-40.396-46.081-32.557-76.208C723.866,496.09,717.564,494.359,716.485,498.449"/>
	<path fill="#B3362C" d="M670.179,522.322c-21.139,25.134-6.752,66.209,5.602,91.297c1.859,3.791,7.504,0.472,5.666-3.299
		c-10.77-21.84-25.517-60.926-6.644-83.366C677.501,523.74,672.899,519.081,670.179,522.322"/>
	<path fill="#B3362C" d="M613.198,565.474c-21.774,14.821-11.274,46.567-1.172,64.739c2.055,3.696,7.715,0.391,5.651-3.309
		c-7.975-14.371-19.487-43.311-1.165-55.778C619.979,568.768,616.693,563.08,613.198,565.474"/>
</g>
</svg>
