<?xml version="1.0" encoding="utf-8"?>
<!-- Generator: Adobe Illustrator 15.0.0, SVG Export Plug-In . SVG Version: 6.00 Build 0)  -->
<!DOCTYPE svg PUBLIC "-//W3C//DTD SVG 1.1//EN" "http://www.w3.org/Graphics/SVG/1.1/DTD/svg11.dtd">
<svg version="1.1" id="Layer_1" xmlns="http://www.w3.org/2000/svg" xmlns:xlink="http://www.w3.org/1999/xlink" x="0px" y="0px"
	 width="1400px" height="980px" viewBox="0 0 1400 980" enable-background="new 0 0 1400 980" xml:space="preserve">
<rect fill="#37AEB0" width="468.325" height="489.802"/>
<rect x="466.474" fill="#FC771D" width="468.326" height="489.802"/>
<rect x="931.675" fill="#EFAF00" width="468.325" height="489.802"/>
<rect y="490.198" fill="#EFAF00" width="468.325" height="489.802"/>
<rect x="466.474" y="490.198" fill="#E64A45" width="468.326" height="489.802"/>
<rect x="931.675" y="490.198" fill="#37AEB0" width="468.325" height="489.802"/>
<path fill-rule="evenodd" clip-rule="evenodd" fill="#FFFFFF" d="M367.62,322.718c-0.427-3.852-3.688-6.644-7.81-6.646
	c-21.065-0.006-42.131-0.003-63.196-0.003c-2.193,0-2.146,0-2.198-2.138c-0.021-0.89,0.191-1.182,1.13-1.169
	c3.889,0.054,7.777,0.022,11.667,0.022c12.193,0,24.387-0.01,36.58,0.008c2.609,0.004,4.737-0.945,6.316-3.002
	c1.851-2.41,2.091-6.054,0.759-8.816c0.329-0.401,0.554-0.895,0.554-1.454v-35.074c6.198-6.577,9.363-14.547,9.407-23.706
	c0.113-23.098,0.083-46.579,0.053-69.288l-0.025-25.158c-0.004-6.824-5.168-10.394-10.268-10.394c-1.854,0-3.687,0.461-5.301,1.334
	c-0.999,0.54-1.855,1.199-2.566,1.964c0.002-2.056,0.004-4.111,0.007-6.168c0.002-2.049-0.081-4.429-1.091-6.738
	c-0.069-0.159-0.156-0.309-0.259-0.448l-0.813-1.103c-0.087-0.119-0.186-0.229-0.294-0.33l-1.771-1.636
	c-0.117-0.109-0.245-0.205-0.382-0.287c-2.35-1.409-5.099-1.84-8.198-1.271c-2.153,0.397-4.313,1.669-5.836,3.656v-3.316
	c0.001-0.812,0.001-1.731-0.235-2.721c-1.261-5.259-5.807-8.327-11.78-7.675c-5.045,0.559-8.708,4.813-8.708,10.114l-0.001,10.695
	c-0.632-1.067-1.483-2.013-2.551-2.833c-3.292-2.525-8.727-2.722-12.275-0.453l-0.38,0.262c-0.54,0.08-1.03,0.359-1.395,0.773
	v-0.011h-36.011c-6.226-6.165-13.961-9.364-22.78-9.407c-31.478-0.154-62.956-0.043-94.434-0.028
	c-7.208,0.005-9.713,7.171-7.022,12.147c1.459,2.697,3.893,3.871,6.943,3.869c13.044-0.009,26.089,0.007,39.134-0.016
	c0.935-0.001,1.372,0.146,1.35,1.236c-0.025,1.197-0.795,0.896-1.411,0.896c-17.42,0.009-34.841,0.018-52.262-0.004
	c-1.994-0.002-3.949,0.083-5.806,0.896c-0.369,0.271-0.737,0.543-1.106,0.814c-0.546,0.592-1.091,1.182-1.638,1.774
	c-1.236,2.059-1.398,4.309-0.979,6.584c0.564,3.051,3.435,6.1,7.925,6.053c10.329-0.106,20.66-0.033,30.991-0.033
	c7.696,0,15.394-0.001,23.09,0.013c0.367,0.001,0.958-0.249,1.062,0.258c0.138,0.657,0.186,1.412-0.014,2.035
	c-0.163,0.512-0.867,0.234-1.32,0.235c-21.187,0.014-42.375,0.012-63.562,0.014c-0.768,0-1.533-0.01-2.293,0.172
	c-4.155,0.995-6.433,4.557-5.911,9.269c0.426,3.851,3.686,6.644,7.81,6.646c21.065,0.005,42.131,0.003,63.196,0.003
	c2.193,0,2.147,0,2.197,2.137c0.021,0.89-0.192,1.182-1.13,1.169c-3.889-0.055-7.778-0.023-11.667-0.023
	c-12.194,0-24.388,0.011-36.581-0.008c-2.607-0.003-4.737,0.946-6.315,3.002c-2.019,2.629-2.137,6.733-0.373,9.551
	c-0.269,0.378-0.462,0.816-0.462,1.317v35.074c-6.197,6.576-9.36,14.546-9.407,23.705c-0.112,23.071-0.082,46.526-0.053,69.209
	l0.026,25.238c0.003,6.822,5.167,10.392,10.267,10.392c0.001,0,0.001,0,0.001,0c1.854,0,3.688-0.46,5.3-1.333
	c0.999-0.54,1.856-1.198,2.567-1.964c-0.002,2.057-0.004,4.112-0.007,6.169c-0.002,2.049,0.081,4.43,1.09,6.738
	c0.069,0.157,0.155,0.307,0.257,0.445l0.815,1.106c0.087,0.119,0.186,0.229,0.294,0.33l1.773,1.638
	c0.117,0.107,0.243,0.203,0.379,0.284c2.35,1.41,5.104,1.842,8.198,1.271c2.155-0.397,4.313-1.669,5.837-3.656v3.329
	c-0.001,0.807-0.001,1.722,0.234,2.708c1.149,4.788,5.064,7.762,10.219,7.762c0.507,0,1.028-0.028,1.562-0.087
	c5.043-0.559,8.706-4.813,8.708-10.114l0.001-10.693c0.63,1.066,1.482,2.013,2.548,2.832c3.292,2.529,8.728,2.724,12.276,0.454
	l0.381-0.261c0.559-0.084,1.074-0.37,1.442-0.813l0.455-0.546h35.029c6.225,6.165,13.959,9.364,22.779,9.407
	c31.479,0.153,62.958,0.043,94.435,0.027c7.208-0.003,9.712-7.171,7.021-12.146c-1.458-2.698-3.893-3.871-6.941-3.869
	c-13.046,0.009-26.091-0.007-39.135,0.016c-0.934,0.001-1.373-0.147-1.35-1.236c0.027-1.198,0.794-0.896,1.411-0.897
	c17.421-0.01,34.841-0.018,52.263,0.003c1.994,0.002,3.949-0.083,5.806-0.896c0.369-0.271,0.736-0.543,1.105-0.814
	c0.547-0.592,1.093-1.183,1.64-1.774c1.236-2.06,1.398-4.309,0.978-6.585c-0.562-3.052-3.434-6.101-7.924-6.053
	c-10.329,0.107-20.66,0.034-30.991,0.034c-7.696-0.001-15.394,0.001-23.091-0.014c-0.367-0.001-0.958,0.249-1.063-0.258
	c-0.137-0.657-0.185-1.412,0.015-2.036c0.163-0.511,0.866-0.234,1.319-0.234c21.188-0.014,42.375-0.013,63.562-0.015
	c0.768,0,1.534,0.011,2.294-0.171C365.863,330.991,368.142,327.431,367.62,322.718z M288.063,214.96
	c0.651-1.001,0.6-1.97,0.569-2.563l0.002-5.146c0.009-22.911,0.019-45.822,0.002-68.734c-0.002-2.086,0.171-3.529,1.05-4.708
	c0.153-0.2,0.263-0.404,0.34-0.598c0.396-0.188,0.726-0.421,1.007-0.621c1.939-1.242,5.173-1.139,6.951,0.226
	c1.433,1.101,2.099,2.522,2.096,4.473c-0.014,8.811-0.012,17.621-0.009,26.432l0.007,13.299c0.007,2.831,0.013,5.66-0.027,8.487
	c-0.005,0.405-0.023,1.637,0.894,2.567c0.897,0.912,2.077,0.916,2.474,0.916c0.021,0.001,0.284-0.005,0.305-0.004
	c3.273-0.077,4.271-1.131,4.271-4.513l0.003-63.195c0.001-2.943,1.885-5.207,4.582-5.505c3.505-0.394,6.045,1.167,6.76,4.147
	c0.108,0.454,0.107,1.001,0.107,1.752l0.001,14.104c0.001,16.487,0.002,32.972-0.002,49.525c-0.336,2.479,1.192,3.246,1.863,3.46
	c0.927,0.294,2.042,0.318,3.212,0.076c0.257-0.053,2.503-0.601,2.105-3.329c0.013-6.417,0.013-12.834,0.014-19.252l0.013-12.673
	c0.016-7.395,0.03-14.79-0.045-22.185c-0.034-3.18,2.064-5.235,4.154-5.62c1.894-0.346,3.438-0.162,4.781,0.578l1.421,1.313
	l0.519,0.703c0.565,1.432,0.612,3.02,0.61,4.653c-0.023,17.423-0.014,34.843-0.015,52.404c-0.037,0.488-0.125,1.629,0.736,2.579
	c0.586,0.649,1.408,0.988,2.572,1.011c1.061,0,1.912-0.315,2.531-0.936c0.943-0.944,0.942-2.2,0.941-2.737
	c-0.014-7.922-0.014-15.844-0.013-23.767l-0.003-15.367c-0.002-2.362,0.842-3.919,2.653-4.901c3.353-1.808,8.72-0.537,8.725,4.983
	l0.025,25.161c0.029,22.702,0.06,46.177-0.053,69.26c-0.04,8.226-2.98,15.345-8.736,21.16c-0.43,0.435-0.671,1.02-0.671,1.631
	v33.692h-0.238c-1.263-0.389-2.597-0.492-3.978-0.491c-13.313,0.01-26.626,0.001-39.939-0.002v-28.184
	c0-0.877-0.495-1.68-1.279-2.073c-2.296-1.15-4.227-2.45-5.904-3.973c-2.487-2.26-4.568-5.149-6.55-9.089
	c-0.879-1.752-1.901-3.416-2.888-5.024c-0.781-1.272-1.563-2.543-2.266-3.851c-1.659-3.087-3.393-6.132-5.127-9.175
	c-1.704-2.992-3.409-5.984-5.041-9.018c-1.688-3.142-3.438-6.25-5.188-9.356c-1.275-2.264-2.55-4.527-3.801-6.805l-0.538-0.97
	c-1.304-2.348-2.536-4.566-3.071-7.02c-0.393-1.813,0.578-4.301,1.364-4.72c2.475-1.315,5.126-1.253,7.137,0.262
	c1.935,1.458,3.467,3.397,5.205,5.601c0.772,0.976,1.533,1.96,2.294,2.946c1.7,2.199,3.458,4.472,5.323,6.639l0.216,0.269
	c0.287,0.364,0.658,0.835,1.212,1.242l0.57,0.723c0.462,0.587,1.187,0.904,1.926,0.881
	C286.971,215.977,287.655,215.585,288.063,214.96z M180.738,274.845c-0.647,0.999-0.596,1.967-0.567,2.56l-0.003,8.992
	c-0.008,21.629-0.017,43.259,0,64.889c0.002,2.086-0.172,3.528-1.059,4.717c-0.149,0.197-0.256,0.398-0.333,0.588
	c-0.395,0.188-0.726,0.421-1.007,0.621c-1.938,1.24-5.173,1.139-6.951-0.227c-1.433-1.099-2.099-2.52-2.096-4.472
	c0.014-8.969,0.012-17.939,0.009-26.909l-0.006-12.821c-0.007-2.83-0.012-5.659,0.027-8.49c0.006-0.404,0.021-1.636-0.895-2.564
	c-0.904-0.916-2.094-0.916-2.485-0.916c-0.018,0-0.275,0.005-0.293,0.005c-3.273,0.077-4.271,1.131-4.271,4.513l-0.002,63.195
	c-0.001,2.942-1.886,5.207-4.582,5.506c-3.504,0.393-6.047-1.166-6.762-4.147c-0.107-0.45-0.107-0.993-0.106-1.752l-0.001-11.899
	c-0.001-17.221-0.002-34.442,0.001-51.73c0.336-2.479-1.191-3.246-1.863-3.461c-0.506-0.162-1.064-0.244-1.658-0.244
	c-0.499,0-1.024,0.057-1.547,0.167c-0.258,0.052-2.51,0.596-2.112,3.329c-0.013,6.417-0.013,12.834-0.014,19.252l-0.013,12.791
	c-0.015,7.356-0.03,14.711,0.046,22.067c0.034,3.181-2.065,5.235-4.155,5.62c-1.89,0.351-3.436,0.163-4.781-0.577l-1.421-1.313
	l-0.519-0.704c-0.563-1.429-0.611-3.016-0.609-4.651c0.021-17.424,0.014-34.845,0.014-52.401c0.037-0.488,0.128-1.63-0.734-2.582
	c-0.586-0.649-1.408-0.989-2.57-1.013c-1.046,0-3.477,0.358-3.477,3.674c0.014,7.92,0.014,15.844,0.013,23.765l0.003,15.367
	c0.002,2.363-0.841,3.921-2.652,4.901c-0.938,0.506-2.007,0.774-3.094,0.774c-2.801,0-5.628-1.78-5.63-5.757l-0.026-25.242
	c-0.028-22.676-0.059-46.124,0.053-69.181c0.041-8.227,2.981-15.346,8.736-21.16c0.43-0.435,0.671-1.02,0.671-1.631V192.6h44.156
	v28.679c0,0.877,0.496,1.68,1.281,2.073c2.295,1.15,4.226,2.449,5.903,3.972c2.519,2.289,4.539,5.092,6.55,9.089
	c0.879,1.752,1.901,3.416,2.888,5.024c0.781,1.272,1.562,2.543,2.265,3.851c1.658,3.086,3.391,6.128,5.123,9.17
	c1.707,2.994,3.413,5.987,5.044,9.022c1.691,3.147,3.444,6.261,5.198,9.374c1.271,2.259,2.543,4.516,3.791,6.788l0.539,0.973
	c1.304,2.348,2.536,4.564,3.069,7.018c0.394,1.812-0.577,4.3-1.364,4.719c-2.473,1.313-5.125,1.252-7.136-0.261
	c-1.935-1.458-3.467-3.398-5.205-5.601c-0.771-0.976-1.532-1.96-2.292-2.945c-1.701-2.199-3.459-4.472-5.325-6.64l-0.216-0.268
	c-0.286-0.365-0.658-0.837-1.215-1.243l-0.57-0.725c-0.462-0.585-1.191-0.89-1.927-0.877
	C181.828,273.826,181.145,274.219,180.738,274.845z M268.691,296.707c-0.402,0-0.838,0.105-1.299-0.194
	c0.391-0.308,0.704-0.556,1.018-0.802c0.303-0.552,0.837-0.869,1.292-1.26c3.07-2.643,6.333-5.045,9.51-7.555
	c2.161-1.707,4.338-3.402,6.015-5.628c2.256-2.996,2.053-6.619,0.456-9.621c-1.056-1.987-4.781-3.08-7.258-2.541
	c-3.155,0.686-5.855,2.327-8.614,3.842c-5.396,2.964-10.719,6.063-16.143,8.978c-6.119,3.289-12.07,6.878-18.193,10.167
	c-2.984,1.604-5.786,3.602-8.818,5.125c-3.661,1.84-6.985,4.001-9.765,7.061c-1.784,1.967-3.182,4.135-4.328,6.425h-27.76
	c0.001-8.102-0.003-16.205,0-24.307l0.001-4.285c1.144,1.413,2.26,2.856,3.353,4.27c0.771,0.996,1.542,1.994,2.438,3.129
	c1.732,2.195,3.523,4.464,5.938,6.283c3.41,2.565,8.072,2.793,12.103,0.651c3.091-1.643,4.439-6.481,3.718-9.796
	c-0.677-3.124-2.136-5.748-3.547-8.288l-0.527-0.952c-1.255-2.285-2.535-4.557-3.814-6.83c-1.739-3.086-3.477-6.174-5.153-9.294
	c-1.649-3.068-3.374-6.096-5.099-9.123c-1.714-3.008-3.428-6.018-5.068-9.069c-0.744-1.386-1.57-2.734-2.398-4.083
	c-0.979-1.596-1.905-3.104-2.697-4.68c-2.247-4.469-4.654-7.786-7.575-10.439c-1.669-1.515-3.531-2.835-5.664-4.013v-27.381
	c9.607,0.002,19.214-0.002,28.821,0.001c0.402,0,0.838-0.106,1.299,0.192c-0.391,0.309-0.705,0.556-1.018,0.804
	c-0.303,0.551-0.838,0.867-1.293,1.259c-3.07,2.644-6.332,5.045-9.509,7.555c-2.162,1.706-4.34,3.403-6.015,5.629
	c-2.255,2.996-2.054,6.619-0.457,9.621c1.056,1.987,4.781,3.08,7.258,2.54c3.155-0.685,5.855-2.325,8.613-3.84
	c5.397-2.964,10.721-6.064,16.144-8.978c6.12-3.289,12.07-6.878,18.193-10.168c2.984-1.603,5.787-3.6,8.82-5.124
	c3.659-1.84,6.983-4.001,9.764-7.063c1.784-1.965,3.181-4.134,4.328-6.424h28.237c-0.002,9.583,0.003,19.164-0.001,28.747v0.44
	c-1.144-1.412-2.259-2.854-3.35-4.266c-0.771-0.999-1.543-1.996-2.44-3.131c-1.732-2.195-3.523-4.464-5.938-6.284
	c-3.406-2.565-8.071-2.793-12.103-0.652c-3.09,1.642-4.439,6.481-3.719,9.799c0.679,3.124,2.138,5.749,3.548,8.288l0.526,0.951
	c1.259,2.292,2.542,4.569,3.824,6.849c1.735,3.081,3.47,6.161,5.144,9.276c1.649,3.067,3.373,6.092,5.097,9.117
	c1.715,3.01,3.43,6.021,5.071,9.074c0.744,1.386,1.57,2.734,2.398,4.083c0.979,1.596,1.905,3.104,2.697,4.68
	c2.245,4.467,4.652,7.784,7.575,10.44c1.669,1.516,3.533,2.836,5.665,4.012v26.785C288.225,296.706,278.458,296.71,268.691,296.707z
	"/>
<path fill="#FFFFFF" d="M861.334,221.194c3.88-18.622,2.91-38.408-2.909-59.358c-9.312-20.173-24.247-34.139-44.811-41.899
	c-20.56-7.76-42.093-7.372-64.594,1.164c-10.863,5.819-19.98,13.578-27.353,23.278c-14.354-17.459-33.267-27.159-56.738-29.098
	c-23.471-1.941-44.519,5.043-63.141,20.949c-3.992,4.221-7.412,8.796-10.345,13.673c-0.489-2.288-0.525-3.974-0.525-4.016
	c-0.022-2.546-2.092-4.618-4.637-4.618H542.25c-1.678,0-3.225,0.906-4.044,2.37c-0.821,1.462-0.788,3.255,0.087,4.686
	c0.109,0.179,11.052,18.081,22.823,37.111c6.068,9.81,12.08,17.12,18.444,22.269c1.146,15.558,5.202,30.349,12.336,44.331
	c16.682,31.424,51.211,66.924,103.585,106.496c0.776,0.774,3.2,2.716,7.274,5.819s7.565,5.625,10.475,7.565
	c2.91,1.939,5.723,3.104,8.438,3.492c4.269-0.388,13.482-6.014,27.644-16.876c14.159-10.863,26.478-21.144,36.953-30.842
	c1.79-1.524,3.519-3.056,5.251-4.585c0.758,1.54,2.322,2.612,4.146,2.612h44.032c1.678,0,3.224-0.905,4.044-2.368
	c0.82-1.464,0.788-3.256-0.088-4.687c-0.095-0.155-8.372-13.698-18.263-29.729c4.516-5.285,8.769-10.596,12.669-15.944
	C849.695,257.081,857.455,239.816,861.334,221.194z M565.06,182.997c-11.9-19.24-22.81-37.089-22.81-37.089h44.032
	c0,0,0,13.091,9.718,19.041c7.439,4.555,18.134,7.367,34.93,7.367c5.145,0,10.862-0.264,17.233-0.822
	c17.208-1.507,36.355-2.882,50.434-2.882c8.15,0,14.601,0.461,17.995,1.624c9.254,3.176,32.261,26.446,37.552,34.382
	c0,0-2.476,6.554-8.183,6.554c-2.639,0-5.969-1.401-10.064-5.498c-12.959-12.958-16.133-16.66-22.216-16.925
	c-0.13-0.005-0.263-0.008-0.396-0.009c-5.979,0-15.435,5.571-21.173,5.571c-0.129,0-0.254-0.003-0.379-0.009
	c-5.82-0.264-12.298-2.908-17.717-3.306c-5.425-0.396-28.034-1.19-28.034-1.19s-3.371,3.306,14.677,3.702
	c0,0,36.892,1.983,48.197,7.934c0,0,2.084,8.858-9.514,8.858c-0.796,0-1.656-0.042-2.586-0.131
	c-13.947-1.336-24.769-3.778-36.535-3.779c-0.448,0-0.896,0.004-1.346,0.011c-11.778,0.19-34.833,6.384-51.396,6.384
	c-0.733,0-1.452-0.013-2.157-0.037C588.661,212.152,576.96,202.236,565.06,182.997z M795.662,321.079c0,0,0-13.091-9.718-19.042
	c-7.441-4.555-18.136-7.366-34.935-7.367c-5.144,0-10.859,0.264-17.229,0.822c-17.208,1.507-36.353,2.883-50.431,2.883
	c-8.15,0-14.603-0.461-17.996-1.625c-9.256-3.174-32.263-26.446-37.553-34.381c0,0,2.475-6.554,8.182-6.554
	c2.64,0,5.97,1.402,10.066,5.498c12.957,12.958,16.131,16.66,22.214,16.924c0.13,0.006,0.263,0.008,0.396,0.008
	c5.979,0,15.436-5.568,21.174-5.569c0.128,0,0.255,0.003,0.379,0.009c5.819,0.263,12.297,2.908,17.718,3.305
	c5.423,0.396,28.033,1.191,28.033,1.191s3.371-3.307-14.678-3.703c0,0-36.891-1.984-48.196-7.934c0,0-2.085-8.858,9.513-8.858
	c0.796,0,1.656,0.042,2.586,0.131c13.948,1.337,24.77,3.779,36.535,3.779c0.448,0,0.896-0.004,1.348-0.011
	c11.776-0.19,34.832-6.383,51.396-6.383c0.732,0,1.451,0.013,2.156,0.038c16.66,0.595,28.362,10.512,40.262,29.75
	c11.9,19.24,22.811,37.091,22.811,37.091H795.662z"/>
<path fill="#FFFFFF" d="M1255.589,255.342c-0.05-0.18-0.114-0.356-0.192-0.526c-4.29-9.298-11.276-15.829-20.767-19.409
	c-7.881-2.977-16.208-3.305-24.715-1.054c-0.007-23.786-0.049-47.57-0.06-71.354c-0.008-9.814-9.765-13.225-16.537-9.561
	c-3.673,1.988-5.271,5.301-5.268,9.453c0.012,17.76-0.01,35.519,0.021,53.278c0.002,1.275-0.199,1.869-1.684,1.836
	c-1.632-0.034-1.22-1.08-1.221-1.92c-0.012-23.718-0.025-47.432,0.007-71.148c0.001-2.716-0.114-5.378-1.222-7.906
	c-0.37-0.5-0.739-1.003-1.109-1.505c-0.804-0.744-1.609-1.487-2.414-2.231c-2.805-1.684-5.865-1.903-8.964-1.333
	c-4.155,0.768-8.305,4.677-8.241,10.791c0.146,14.062,0.047,28.126,0.047,42.19c-0.003,10.479,0,20.958-0.02,31.437
	c-0.001,0.499,0.34,1.303-0.352,1.446c-0.896,0.187-1.922,0.251-2.77-0.02c-0.698-0.222-0.32-1.178-0.32-1.796
	c-0.019-28.844-0.017-57.688-0.019-86.533c0-1.047,0.013-2.089-0.234-3.124c-1.356-5.656-6.204-8.757-12.619-8.047
	c-5.242,0.582-9.046,5.021-9.047,10.632c-0.009,28.678-0.006,57.358-0.006,86.036c0,2.986,0,2.922-2.909,2.991
	c-1.212,0.031-1.61-0.261-1.592-1.538c0.074-5.292,0.031-10.589,0.031-15.884c0-16.6-0.015-33.201,0.009-49.803
	c0.007-3.549-1.286-6.447-4.087-8.597c-3.602-2.766-9.249-2.92-13.086-0.462c-0.549,0.351-1.034,0.84-1.757,0.82
	c-0.263,0.318-0.527,0.635-0.789,0.95c-0.028,0.214,0.019,0.484-0.097,0.633c-1.858,2.49-2.08,5.343-2.078,8.327
	c0.025,33.525,0.009,67.051-0.006,100.576c0,0.55,0.146,1.141-0.263,1.769c-0.42-0.532-0.756-0.958-1.094-1.386
	c-0.748-0.414-1.18-1.14-1.713-1.758c-3.601-4.181-6.868-8.623-10.286-12.946c-2.321-2.945-4.632-5.908-7.663-8.19
	c-4.079-3.071-9.009-2.794-13.097-0.62c-2.706,1.438-4.192,6.508-3.461,9.88c0.934,4.296,3.169,7.972,5.229,11.728
	c4.037,7.348,8.257,14.594,12.224,21.977c4.478,8.333,9.365,16.432,13.843,24.768c2.183,4.062,4.902,7.877,6.977,12.005
	c2.503,4.983,5.448,9.508,9.614,13.294c2.676,2.429,5.627,4.331,8.746,5.894v42.198h66.428v-22.55
	c2.054-0.737,5.291-2.588,11.479-7.335c5.997-4.6,11.306-9.031,15.673-13.077c8.977-7.649,16.487-15.586,22.32-23.588
	c5.166-7.059,8.659-14.836,10.383-23.116C1258.604,273.593,1258.174,264.646,1255.589,255.342z M1250.057,280.515
	c-1.521,7.3-4.612,14.172-9.19,20.43c-5.517,7.566-12.654,15.102-21.321,22.491c-4.318,3.995-9.461,8.287-15.289,12.757
	c-6.178,4.739-8.691,5.973-9.531,6.292c-0.485-0.15-1.018-0.419-1.59-0.799c-1.156-0.772-2.578-1.799-4.226-3.055
	c-2.226-1.694-2.676-2.109-2.708-2.141c-0.113-0.112-0.232-0.216-0.359-0.312c-21.507-16.249-35.827-30.925-42.54-43.571
	c-3.771-7.391-5.415-15.469-4.886-24.012c0.518-8.382,3.249-15.111,8.346-20.562c7.126-6.034,14.945-8.604,23.854-7.863
	c8.972,0.74,15.989,4.33,21.451,10.973c0.675,0.822,1.665,1.324,2.754,1.268c1.063-0.021,2.06-0.526,2.702-1.374
	c2.734-3.598,6.155-6.529,10.172-8.716c8.55-3.193,16.728-3.331,24.479-0.406c7.743,2.921,13.238,8.013,16.788,15.563
	C1251.18,265.602,1251.548,273.351,1250.057,280.515z"/>
<path fill="#FFFFFF" d="M346.719,654.727c-0.05-0.182-0.114-0.357-0.194-0.527c-4.661-10.104-12.252-17.198-22.562-21.088
	c-10.211-3.854-21.099-3.677-32.204,0.537c-0.14,0.054-0.277,0.115-0.41,0.186c-3.577,1.917-6.777,4.305-9.614,7.078
	c-3.693-2.177-7.475-4.099-11.341-5.771c-2.413-1.229-4.961-2.221-7.658-2.951c-8.575-2.907-17.515-4.709-26.798-5.374
	c-0.623-0.045-1.236-0.238-1.854-0.361c-4.244,0-8.488,0-12.732,0c-4.119,0.554-8.273,0.928-12.354,1.689
	c-32.39,6.025-57.215,23.209-74.46,51.18c-8.966,14.544-13.89,30.51-15.104,47.586c-0.044,0.614-0.237,1.217-0.36,1.824
	c0,4.243,0,8.488,0,12.731c0.562,4.182,0.934,8.4,1.714,12.541c6.1,32.384,23.308,57.224,51.356,74.382
	c18,11.012,37.802,16.067,58.861,15.272c31.15-1.175,57.333-13.458,78.123-36.717c15.496-17.336,24.169-37.81,26.714-60.9
	c0.169-1.526,0.348-3.052,0.522-4.578c0-4.243,0-8.488,0-12.731c-0.552-4.111-0.928-8.255-1.685-12.326
	c-0.233-1.261-0.496-2.503-0.772-3.735c0.997-1.26,1.968-2.521,2.889-3.784c5.629-7.693,9.437-16.17,11.315-25.191
	C350.005,674.615,349.537,664.868,346.719,654.727z M209.675,642.864c3.193-2.87,6.749-5.109,10.815-6.503
	c0.846-0.291,1.74-0.443,2.785-0.703c0,1.776,0,3.538,0,5.305c-0.108,0.091-0.223,0.166-0.332,0.259
	c-0.094,0.08-0.184,0.165-0.269,0.255c-6.797,7.187-10.585,16.347-11.259,27.229c-0.288,4.631-0.029,9.147,0.707,13.549
	c-7.918-0.608-15.838-1.664-23.991-3.344c2.11-5.019,3.931-9.829,6.124-14.463C198.091,656.349,202.938,648.924,209.675,642.864z
	 M266.09,748.881c0.423,0.39,1.28,1.101,3.494,2.787c1.906,1.452,3.492,2.597,4.863,3.515c-0.905,9.219-2.47,18.274-4.725,27.094
	c-12.599-1.408-24.978-2.792-37.546-4.198c0-12.475,0-25.381,0-38.55c7.367,0,14.724,0,22.089,0
	C257.975,742.6,261.906,745.716,266.09,748.881z M232.171,730.619c0-3.961,0-7.898,0-11.84c3.502,3.849,7.463,7.799,11.863,11.84
	C240.083,730.619,236.138,730.619,232.171,730.619z M223.213,730.624c-14.285,0-28.583,0-43.133,0
	c0.177-14.607,2.09-28.882,5.638-42.689c9.612,1.074,19.092,2.136,28.625,3.202c0.889,2.612,1.955,5.178,3.233,7.683
	c1.549,2.916,3.438,5.914,5.637,8.984C223.213,715.317,223.213,722.923,223.213,730.624z M223.229,739.543
	c0,12.977,0,25.934,0,38.535c-12.454,1.393-24.838,2.777-37.505,4.194c-3.554-13.788-5.463-28.067-5.646-42.729
	C194.554,739.543,208.804,739.543,223.229,739.543z M200.786,639.002c-10.034,10.918-16.202,23.95-20.929,37.885
	c-8.867-2.236-17.19-5.396-25.529-9.608C167.33,653.391,182.691,644.034,200.786,639.002z M148.178,674.562
	c9.689,3.775,19.172,7.47,29.059,11.321c-3.66,14.284-5.592,29.396-5.951,44.781c-14.531,0-28.834,0-43.399,0
	C128.937,709.614,135.824,690.893,148.178,674.562z M148.184,795.631c-12.352-16.234-19.216-35.008-20.314-56.099
	c14.606,0,28.909,0,43.398,0c0.421,15.362,2.253,30.443,6,44.792C167.495,788.124,157.996,791.816,148.184,795.631z M154.329,802.95
	c8.254-4.213,16.605-7.381,25.089-9.538c3.023,6.747,5.82,13.425,8.979,19.927c3.189,6.561,7.542,12.385,12.904,18.17
	C182.75,826.223,167.411,816.834,154.329,802.95z M223.317,834.858c-2.632-1.077-5.099-1.861-7.35-3.054
	c-5.743-3.045-10.079-7.72-13.882-12.86c-6.019-8.136-10.131-17.258-13.414-26.78c-0.068-0.192-0.053-0.415-0.111-0.916
	c11.383-2.46,22.896-3.602,34.757-3.912C223.317,803.194,223.317,818.725,223.317,834.858z M245.708,827.386
	c-3.196,2.865-6.76,5.096-10.831,6.477c-0.845,0.286-1.738,0.431-2.75,0.674c0-15.787,0-31.316,0-47.196
	c11.705,0.265,23.222,1.475,35.182,3.958c-2.136,5.075-3.956,9.89-6.157,14.523C257.306,813.915,252.455,821.339,245.708,827.386z
	 M254.099,831.524c10.561-11.202,16.726-24.201,21.476-38.225c8.918,2.303,17.267,5.379,25.516,9.655
	C288.062,816.828,272.701,826.206,254.099,831.524z M307.178,795.604c-9.599-3.739-19.089-7.438-28.978-11.29
	c2.272-8.86,3.827-18.055,4.8-27.436c2.217-0.858,5.763-2.925,12.246-7.896c4.224-3.242,8.093-6.39,11.618-9.413
	c6.822,0,13.642,0,20.508,0C327.283,756.644,320.28,779.261,307.178,795.604z M327.558,730.612c-3.534,0-7.051,0-10.57,0
	c3.428-3.119,6.635-6.275,9.605-9.459C327.033,724.258,327.392,727.396,327.558,730.612z M341.302,682.278
	c-1.675,8.045-5.08,15.616-10.123,22.508c-6.064,8.314-13.901,16.587-23.398,24.683c-4.733,4.38-10.375,9.088-16.77,13.994
	c-7.006,5.374-9.722,6.667-10.625,6.979c-0.597-0.169-1.248-0.487-1.944-0.951c-1.259-0.839-2.821-1.968-4.643-3.355
	c-2.435-1.854-2.937-2.313-3.007-2.379c-0.111-0.111-0.23-0.214-0.354-0.308c-23.594-17.828-39.312-33.941-46.693-47.841
	c-4.157-8.15-5.97-17.056-5.387-26.473c0.574-9.271,3.599-16.714,9.244-22.745c7.882-6.676,16.524-9.516,26.386-8.701
	c9.921,0.818,17.681,4.789,23.725,12.139c0.676,0.822,1.703,1.336,2.753,1.269c1.063-0.021,2.06-0.527,2.702-1.374
	c3.026-3.982,6.817-7.229,11.27-9.649c9.443-3.537,18.498-3.689,27.068-0.454c8.575,3.236,14.657,8.878,18.585,17.243
	C342.542,665.823,342.95,674.374,341.302,682.278z"/>
<g>
	<polygon fill="#FFFFFF" points="1181.709,673.994 1192.109,673.994 1186.908,662.029 	"/>
	<path fill="#FFFFFF" d="M1119.227,660.422c-5.877,0-9.977,4.693-9.977,10.442v0.086c0,5.75,4.186,10.484,10.061,10.484
		c5.877,0,9.979-4.651,9.979-10.4v-0.084C1129.289,665.199,1125.104,660.422,1119.227,660.422z"/>
	<path fill="#FFFFFF" d="M1083.082,660.888h-5.836v20.123h5.836c6.215,0,10.273-4.185,10.273-9.977v-0.084
		C1093.355,665.158,1089.297,660.888,1083.082,660.888z"/>
	<path fill="#FFFFFF" d="M1287.492,766.656c-2.689-3.256-6.422-4.557-8.609-5.062c-1.5-5.847-7.004-9.295-15.102-9.338
		c-2.904-4.965-7.766-7.576-14.156-7.576c-1.969,0-3.775,0.257-5.195,0.549l-0.51-34.283h0.584
		c22.088,0,39.996-17.907,39.996-39.997c0-22.089-17.908-39.997-39.996-39.997h-163.467c-22.09,0-39.998,17.908-39.998,39.997
		c0,22.09,17.908,39.997,39.998,39.997h139.826v67.241c0,0.061-0.002,0.111-0.002,0.155c-0.086,0.014-0.195,0.026-0.336,0.033
		c-0.955-0.77-2.592-4.419-3.582-6.634c-0.822-1.834-1.672-3.73-2.559-5.314c-2.641-4.709-9.871-9.957-16.031-9.957
		c-1.24,0-2.404,0.21-3.457,0.624c-2.035,0.799-3.51,2.361-4.26,4.52c-1.715,4.915,0.6,11.69,3.102,16
		c3.43,5.904,6.799,17.071,8.23,24.581c1.109,5.819,6.117,13.369,10.143,19.435c1.857,2.804,3.615,5.452,4.328,6.995
		c2.055,4.451,2.105,8.272,2.105,8.303c0,1.28,1.037,2.318,2.318,2.318h52.943c0.756,0,1.459-0.379,1.893-0.997
		s0.535-1.421,0.279-2.131c-0.063-0.178-1.529-4.407,1.141-11.081c2.275-5.688,11.807-31.854,13.387-46.603
		C1291.018,773.659,1290.004,769.695,1287.492,766.656z M1231.127,658.773c0-1.479,1.143-2.622,2.621-2.622h17.209
		c1.268,0,2.324,1.057,2.324,2.325c0,1.311-1.057,2.325-2.324,2.325h-14.629v7.696h12.727c1.268,0,2.324,1.056,2.324,2.366
		c0,1.269-1.057,2.285-2.324,2.285h-12.727v7.947h14.84c1.268,0,2.326,1.058,2.326,2.326c0,1.311-1.059,2.325-2.326,2.325h-17.42
		c-1.479,0-2.621-1.142-2.621-2.622V658.773z M1098.809,670.95c0,8.329-6.426,14.798-15.727,14.798h-8.414
		c-1.48,0-2.621-1.142-2.621-2.622v-24.353c0-1.479,1.141-2.622,2.621-2.622h8.414c9.301,0,15.727,6.385,15.727,14.713V670.95z
		 M1134.744,670.95c0,8.329-6.428,15.305-15.518,15.305s-15.432-6.893-15.432-15.221v-0.084c0-8.33,6.428-15.307,15.516-15.307
		c9.09,0,15.434,6.893,15.434,15.221V670.95z M1166.83,683.337c0,1.438-1.1,2.579-2.537,2.579h-0.213
		c-1.225,0-1.986-0.635-2.705-1.563l-15.219-19.704v18.773c0,1.395-1.143,2.536-2.537,2.536c-1.439,0-2.58-1.142-2.58-2.536v-24.819
		c0-1.436,1.141-2.62,2.621-2.62h0.551c1.268,0,1.986,0.634,2.705,1.521l14.797,19.151v-18.18c0-1.395,1.143-2.536,2.537-2.536
		c1.438,0,2.58,1.142,2.58,2.536V683.337z M1199.043,685.959c-1.227,0-2.072-0.718-2.537-1.818l-2.408-5.539h-14.375l-2.494,5.709
		c-0.424,1.057-1.313,1.648-2.412,1.648c-1.352,0-2.41-1.058-2.41-2.409c0-0.381,0.127-0.762,0.34-1.185l10.992-24.522
		c0.592-1.312,1.648-2.113,3.129-2.113h0.254c1.479,0,2.494,0.802,3.086,2.113l10.992,24.522c0.211,0.38,0.297,0.761,0.297,1.098
		C1201.496,684.86,1200.438,685.959,1199.043,685.959z M1216.248,683.38c0,1.438-1.184,2.579-2.621,2.579s-2.621-1.142-2.621-2.579
		v-22.408h-7.188c-1.354,0-2.41-1.098-2.41-2.409c0-1.311,1.057-2.411,2.41-2.411h19.66c1.311,0,2.367,1.101,2.367,2.411
		c0,1.312-1.057,2.409-2.367,2.409h-7.23V683.38z M1285.896,777.941c-1.416,13.203-10.084,37.879-13.082,45.372
		c-1.93,4.823-2.074,8.757-1.82,11.296h-48.008c-0.264-1.901-0.883-4.78-2.336-7.928c-0.863-1.868-2.629-4.53-4.676-7.616
		c-3.594-5.417-8.516-12.836-9.449-17.737c-1.541-8.085-5.051-19.626-8.775-26.042c-2.523-4.345-3.674-9.453-2.734-12.146
		c0.305-0.877,0.805-1.427,1.576-1.729c0.512-0.2,1.104-0.302,1.762-0.302c4.285,0,10.059,4.15,11.984,7.586
		c0.785,1.403,1.592,3.203,2.373,4.944c2.348,5.241,4.203,9.38,7.572,9.38c1.949,0,5.217-0.627,5.217-4.831l-0.006-73.21
		c-0.004-0.051-0.309-5.262,2.471-8.257c1.373-1.479,3.283-2.197,5.844-2.197c1.063,0,1.896,0.351,2.627,1.105
		c2.484,2.562,2.854,8.663,2.783,10.908l0.619,41.735c0.012,0.751,0.387,1.449,1.004,1.875c0.617,0.425,1.406,0.524,2.113,0.269
		c0.029-0.012,3.053-1.099,6.67-1.099c5.105,0,8.701,2.117,10.686,6.293c0.416,0.871,1.311,1.377,2.291,1.315
		c0.045-0.004,0.424-0.031,1.025-0.031c3.797,0,10.273,0.904,10.967,6.97c0.125,1.098,1.01,1.955,2.111,2.047
		c0.045,0.003,4.539,0.462,7.211,3.698C1285.604,771.65,1286.27,774.453,1285.896,777.941z"/>
</g>
<g>
	<path fill="#FFFFFF" d="M812.79,746.303L793,713.269c-0.804-1.673-1.752-3.258-2.839-4.741l-0.007-0.012h-0.003
		c-5.484-7.482-14.313-12.362-24.301-12.362h-16.328c3.094-6.776,4.83-14.295,4.83-22.217c0-29.618-24.097-53.715-53.717-53.715
		c-29.618,0-53.714,24.097-53.714,53.715c0,7.922,1.736,15.44,4.829,22.217h-16.325c-11.98,0-22.297,7.007-27.158,17.131
		l-19.781,33.019c-3.879,5.073-6.209,11.392-6.209,18.27v55.262c0,16.647,13.495,30.143,30.143,30.143h176.435
		c16.647,0,30.143-13.495,30.143-30.143v-55.262C818.997,757.694,816.667,751.376,812.79,746.303z M700.636,627.178
		c25.784,0,46.761,20.977,46.761,46.759c0,25.783-20.977,46.76-46.761,46.76c-25.782,0-46.758-20.977-46.758-46.76
		C653.878,648.154,674.854,627.178,700.636,627.178z M761.663,734.461H639.611c-1.299,0-2.352-1.053-2.352-2.351
		s1.053-2.352,2.352-2.352h122.052c1.299,0,2.352,1.054,2.352,2.352S762.962,734.461,761.663,734.461z"/>
	<path fill="#FFFFFF" d="M677.464,698.176c5.917,4.168,12.605,6.787,19.878,7.564v6.009c0,2.329,1.937,4.17,4.266,4.17
		c2.328,0,4.169-1.841,4.169-4.17v-5.817c12.313-1.164,20.651-8.242,20.651-18.906c0-10.375-6.303-16.289-21.039-19.971v-18.616
		c3.297,0.773,6.592,2.228,9.987,4.264c0.968,0.582,1.937,0.874,2.908,0.874c3.005,0,5.43-2.328,5.43-5.334
		c0-2.326-1.359-3.781-2.908-4.654c-4.462-2.809-9.309-4.65-15.029-5.332v-2.132c0-2.328-1.841-4.169-4.169-4.169
		c-2.329,0-4.266,1.841-4.266,4.169v2.036c-12.12,0.969-20.362,8.143-20.362,18.521c0,10.956,6.594,16.287,20.75,19.97v19.102
		c-5.334-0.968-9.794-3.199-14.349-6.496c-0.873-0.677-2.037-1.067-3.201-1.067c-3.005,0-5.333,2.328-5.333,5.332
		C674.847,695.558,675.815,697.107,677.464,698.176z M705.389,678.492c7.466,2.327,9.598,4.945,9.598,9.214
		c0,4.651-3.392,7.756-9.598,8.433V678.492z M688.422,655.999c0-4.264,3.103-7.561,9.308-8.143v17.161
		C690.263,662.595,688.422,660.072,688.422,655.999z"/>
</g>
</svg>
